<svg width="136" height="136" viewBox="0 0 136 136" fill="none" xmlns="http://www.w3.org/2000/svg">
<g clip-path="url(#clip0_14_414)">
<path d="M91.3467 2.84089L133.159 44.6533V133.174H44.2L2.84089 91.8V2.84089H91.3467ZM92.48 0H0V92.9333L43.0667 136H136V43.52L92.48 0Z" fill="white"/>
<path d="M29.8444 30.1782C29.8009 30.6865 29.8902 31.1975 30.1032 31.6593C30.2164 32.0378 30.459 32.5315 30.5883 32.8935C30.631 32.9459 30.6631 33.0063 30.6825 33.0713C30.7019 33.1363 30.7085 33.2046 30.7015 33.272C30.7015 33.5189 30.5883 33.6505 30.3296 33.7657L29.246 34.5063H28.8902C28.7937 34.507 28.6982 34.4851 28.6112 34.4423C28.5244 34.3995 28.4482 34.337 28.3889 34.2594C28.1565 34.0422 27.9551 33.7929 27.7905 33.5189C27.6061 33.2018 27.4441 32.8718 27.3053 32.5315C26.7206 33.2676 25.9814 33.8612 25.1417 34.2683C24.3022 34.6756 23.3836 34.8863 22.4535 34.8848C21.8588 34.9282 21.2619 34.8404 20.7036 34.6274C20.1453 34.4143 19.639 34.0812 19.219 33.6506C18.8049 33.2166 18.4838 32.7 18.275 32.1337C18.0662 31.5673 17.9746 30.9633 18.006 30.3592C17.9892 29.7144 18.109 29.0734 18.3574 28.48C18.6057 27.8864 18.9769 27.3544 19.4454 26.9198C20.5993 26.0301 22.0084 25.5502 23.4562 25.5538C24.0253 25.527 24.5957 25.5713 25.1543 25.6855L26.9818 26.0475V24.8133C27.0473 24.3329 27.015 23.8442 26.8871 23.377C26.759 22.9099 26.5382 22.4746 26.2379 22.0979C25.8651 21.7979 25.4365 21.5776 24.978 21.4504C24.5194 21.323 24.0402 21.2916 23.5694 21.3574C22.9595 21.384 22.3532 21.4667 21.7581 21.6042C21.1379 21.7525 20.5317 21.9562 19.9467 22.2131C19.7041 22.3448 19.5748 22.3448 19.3322 22.4764H19.0896C18.847 22.4764 18.7176 22.3448 18.7176 21.9827V21.1105C18.6992 20.8936 18.7441 20.6761 18.847 20.4852C18.9851 20.3348 19.1496 20.212 19.3322 20.1231C19.9665 19.7506 20.6627 19.4994 21.3861 19.3826C22.2172 19.1415 23.0771 19.0197 23.9414 19.0205C25.4776 18.8913 27.0029 19.3753 28.1948 20.37C28.674 20.9247 29.0384 21.5721 29.2662 22.2734C29.4941 22.9746 29.5806 23.7153 29.5209 24.4512L29.8444 30.1782ZM23.1813 32.6467C23.79 32.6441 24.397 32.5779 24.9926 32.4492C25.5966 32.1843 26.1455 31.8044 26.6099 31.3302C26.9047 31.0188 27.1114 30.6322 27.2083 30.2111C27.3147 29.7309 27.3582 29.2383 27.3376 28.7464V27.9894C26.3375 27.7722 25.3196 27.6511 24.2972 27.6274C23.4402 27.5208 22.575 27.7437 21.8713 28.2527C21.3963 28.7351 21.1099 29.3766 21.0652 30.0577C21.0206 30.739 21.2208 31.4134 21.6287 31.9555C21.8001 32.2229 22.0443 32.4336 22.3316 32.5623C22.6188 32.6908 22.9364 32.7316 23.246 32.6796L23.1813 32.6467ZM36.3943 34.5063C36.1679 34.5063 35.9091 34.5063 35.7959 34.3911C35.647 34.2022 35.5271 33.9914 35.4401 33.7657L31.5425 20.8143C31.4617 20.6163 31.423 20.4032 31.4293 20.189C31.4293 19.9421 31.5425 19.8105 31.6719 19.8105H33.37C33.6126 19.8105 33.8552 19.8105 33.9684 19.9421C34.123 20.124 34.2487 20.3295 34.3404 20.551L37.1221 31.5441L39.6774 20.551C39.6772 20.4263 39.71 20.304 39.7728 20.1967C39.8354 20.0896 39.9253 20.0015 40.0332 19.9421C40.2243 19.8476 40.4354 19.8024 40.6477 19.8105H41.9739C42.1877 19.7754 42.4067 19.8223 42.5884 19.9421C42.7374 20.1251 42.8574 20.3305 42.9442 20.551L45.4995 31.7909L48.2974 20.551C48.2953 20.4259 48.3276 20.3028 48.3904 20.1952C48.4533 20.0878 48.5442 20 48.6532 19.9421C48.835 19.8379 49.0436 19.792 49.2516 19.8105H50.8688C51.1114 19.8105 51.2408 19.9421 51.2408 20.0738V20.4358C51.2408 20.551 51.1114 20.6827 51.1114 20.8143L47.23 33.6506C47.2324 33.7778 47.1986 33.903 47.1326 34.0111C47.0666 34.1192 46.9712 34.2055 46.858 34.2594C46.7448 34.5063 46.5022 34.5063 46.2596 34.5063H44.8041C44.5615 34.5063 44.3189 34.5063 44.2057 34.3911C44.0925 34.2759 43.9631 34.0126 43.8337 33.7657L41.2785 23.0195L38.7394 33.7657C38.7429 33.8954 38.7098 34.0233 38.6438 34.1342C38.5778 34.2451 38.4819 34.3343 38.3674 34.3911C38.2285 34.4828 38.063 34.5234 37.8984 34.5063H36.3943ZM57.4188 35C56.5674 34.983 55.7187 34.9006 54.8797 34.7532C54.2161 34.6026 53.5668 34.3934 52.9389 34.1278C52.7478 34.056 52.5854 33.9219 52.477 33.7462C52.3689 33.5706 52.3208 33.3632 52.3405 33.1568V32.2846C52.3405 31.9226 52.4538 31.7909 52.6963 31.7909H52.9389C53.0683 31.7909 53.1815 31.9226 53.2947 31.9226C53.886 32.1772 54.4973 32.3809 55.1222 32.5315C55.7607 32.6714 56.4102 32.754 57.063 32.7783C57.9149 32.8223 58.7601 32.6044 59.4889 32.153C59.7479 31.9657 59.9605 31.7194 60.1092 31.4337C60.258 31.1478 60.3391 30.8307 60.346 30.5073C60.3698 30.2945 60.3357 30.0789 60.2472 29.8846C60.1589 29.6901 60.0195 29.524 59.8447 29.4047C59.3708 29.003 58.8201 28.7061 58.2274 28.5325L55.8015 27.792C54.7655 27.5035 53.8402 26.9008 53.1492 26.064C52.6263 25.3475 52.3276 24.4873 52.292 23.5955C52.2843 22.9423 52.4521 22.2992 52.7772 21.7359C53.4429 20.6567 54.4813 19.87 55.6883 19.5307C56.3509 19.3141 57.0474 19.2248 57.7422 19.2674C58.1135 19.2466 58.4855 19.2912 58.842 19.399C59.2134 19.4242 59.5789 19.5075 59.9255 19.6459C60.2975 19.7611 60.5401 19.7611 60.9121 19.8927C61.284 20.0244 61.3811 20.0244 61.6398 20.1396C61.8179 20.2359 61.9814 20.3578 62.125 20.5016C62.2272 20.6925 62.267 20.9116 62.2382 21.127V21.8675C62.2382 22.2296 62.125 22.3612 61.8662 22.3612C61.6448 22.3509 61.4338 22.2638 61.2679 22.1144C60.253 21.6511 59.1437 21.4425 58.0333 21.5055C57.2769 21.4872 56.5276 21.6567 55.85 21.9992C55.5892 22.1302 55.3771 22.3438 55.2458 22.6079C55.1146 22.8721 55.0711 23.1726 55.1222 23.4638C55.1067 23.6936 55.1423 23.9238 55.2262 24.1374C55.3103 24.3512 55.4405 24.5427 55.6074 24.6981C56.1052 25.1767 56.7395 25.4821 57.4188 25.5703L59.7314 26.3109C60.7113 26.6092 61.5905 27.1789 62.2706 27.9565C62.7669 28.635 63.0234 29.4645 62.9983 30.3098C63.0127 31.0005 62.8453 31.6823 62.5131 32.2846C62.2432 32.8779 61.8248 33.3886 61.3002 33.7657C60.7364 34.166 60.1285 34.4972 59.4889 34.7532C58.8103 34.9149 58.1156 34.9979 57.4188 35Z" fill="white"/>
<path d="M60.2297 42.9269C54.3653 46.9207 47.4444 49.0371 40.3705 48.9995C31.4405 49.0189 22.8229 45.6824 16.1962 39.6395C15.715 39.1537 16.1962 38.5545 16.8058 38.9108C24.1401 43.2345 32.4867 45.4991 40.9801 45.4693C47.3392 45.4448 53.6325 44.1686 59.5078 41.7123C60.342 41.3399 61.1922 42.3115 60.2297 42.9269ZM61.0638 46.5704C60.8393 47.0563 61.3205 47.283 61.8017 46.9267C64.6731 44.4976 65.4111 39.3966 64.8015 38.6679C64.1919 37.9392 59.1389 37.34 56.1392 39.51C55.6579 39.8824 55.7862 40.3682 56.2514 40.2387C57.9358 39.9958 61.8017 39.51 62.5236 40.4978C63.2455 41.4856 61.6734 44.9835 61.0638 46.5704Z" fill="white"/>
<path d="M25 105H28.2839V98.83C28.2839 98.3668 28.2459 96.6621 28.2459 96.6621H28.2839C28.2839 96.6621 29.0242 98.0888 29.252 98.4409L33.2382 105H36.617V91.752H33.3331V98.0332C33.3331 98.4965 33.3711 100.09 33.3711 100.09H33.3331C33.3331 100.09 32.6118 98.7744 32.403 98.4038L28.3788 91.752H25V105Z" fill="white"/>
<path d="M42.7664 101.526C44.0002 101.526 44.9873 101.211 45.8035 100.655C46.6577 100.081 47.2272 99.2654 47.436 98.4131H44.4178C44.1521 99.006 43.6206 99.358 42.8044 99.358C41.5326 99.358 40.8113 98.5613 40.6214 97.2828H47.6068C47.6258 95.3559 47.0563 93.7068 45.8984 92.6692C45.0632 91.9281 43.9623 91.4834 42.5766 91.4834C39.6154 91.4834 37.5843 93.6512 37.5843 96.4861C37.5843 99.358 39.5584 101.526 42.7664 101.526ZM40.6404 95.4856C40.8492 94.3553 41.4566 93.6327 42.6335 93.6327C43.6396 93.6327 44.3609 94.3553 44.4748 95.4856H40.6404Z" fill="white"/>
<path d="M51.7177 101.526C53.0655 101.526 53.9197 101.007 54.622 100.081H54.6789V101.248H57.6401V91.7613H54.5461V97.0605C54.5461 98.1907 53.9007 98.9689 52.8377 98.9689C51.8506 98.9689 51.3761 98.3945 51.3761 97.3569V91.7613H48.301V97.9869C48.301 100.099 49.4779 101.526 51.7177 101.526Z" fill="white"/>
<path d="M58.8627 101.248H61.9567V96.9864C61.9567 94.9297 63.1716 94.0218 65.0698 94.2812H65.1457V91.6872C65.0128 91.6316 64.823 91.6131 64.5383 91.6131C63.3614 91.6131 62.5642 92.1134 61.8808 93.2436H61.8239V91.7613H58.8627V101.248Z" fill="white"/>
<path d="M70.4426 101.544C73.5746 101.544 75.6247 99.3766 75.6247 96.5232C75.6247 93.6698 73.5746 91.5019 70.4426 91.5019C67.3295 91.5019 65.2415 93.6698 65.2415 96.5232C65.2415 99.3766 67.3295 101.544 70.4426 101.544ZM70.4236 99.3951C69.0759 99.3951 68.3735 98.2463 68.3735 96.5232C68.3735 94.8 69.0759 93.6327 70.4236 93.6327C71.7713 93.6327 72.4926 94.8 72.4926 96.5232C72.4926 98.2463 71.7713 99.3951 70.4236 99.3951Z" fill="white"/>
<path d="M76.4048 101.248H79.4989V96.0044C79.4989 94.8371 80.1823 94.0033 81.2073 94.0033C82.2133 94.0033 82.7258 94.6888 82.7258 95.6894V101.248H85.8199V95.0779C85.8199 92.9657 84.5671 91.4834 82.4411 91.4834C81.0934 91.4834 80.1633 92.0392 79.442 93.0583H79.385V91.7613H76.4048V101.248Z" fill="white"/>
<path d="M91.1028 101.544C93.6464 101.544 95.5256 100.47 95.5256 98.3945C95.5256 95.9673 93.5136 95.5411 91.8052 95.2632C90.5713 95.0409 89.4704 94.9482 89.4704 94.2812C89.4704 93.6883 90.0588 93.4104 90.8181 93.4104C91.6723 93.4104 92.2607 93.6698 92.3746 94.5221H95.2219C95.0701 92.6507 93.5895 91.4834 90.8371 91.4834C88.5403 91.4834 86.6421 92.521 86.6421 94.5221C86.6421 96.7455 88.4454 97.1902 90.1348 97.4681C91.4255 97.6905 92.6024 97.7831 92.6024 98.6354C92.6024 99.2469 92.014 99.5804 91.0839 99.5804C90.0588 99.5804 89.4134 99.1172 89.2996 98.1722H86.3763C86.4712 100.266 88.2555 101.544 91.1028 101.544Z" fill="white"/>
<path d="M96.454 101.248H105.907V98.4687H99.8138V88H96.454V101.248Z" fill="white"/>
<path d="M110.77 99.5619C110.011 99.5619 109.441 99.2654 109.441 98.5057C109.441 97.7831 109.935 97.4866 111.131 97.2272C111.757 97.079 112.327 96.9308 112.725 96.727V97.8572C112.725 98.8763 111.928 99.5619 110.77 99.5619ZM109.783 101.489C111.245 101.489 112.099 100.989 112.668 100.192H112.706C112.782 100.674 112.877 101.044 113.029 101.248H116.028V101.118C115.762 100.951 115.686 100.525 115.686 99.7657V94.9853C115.686 93.7995 115.288 92.873 114.453 92.2801C113.75 91.7613 112.763 91.5019 111.302 91.5019C108.359 91.5019 106.974 93.0027 106.898 94.7629H109.745C109.84 93.9662 110.334 93.5401 111.321 93.5401C112.251 93.5401 112.649 93.9477 112.649 94.5591C112.649 95.2076 112.004 95.3929 110.182 95.6153C108.17 95.8747 106.461 96.5046 106.461 98.5984C106.461 100.47 107.847 101.489 109.783 101.489Z" fill="white"/>
<path d="M122.862 101.544C125.368 101.544 127 99.6545 127 96.5046C127 93.6512 125.368 91.4834 122.843 91.4834C121.514 91.4834 120.679 92.0207 120.072 92.836H120.015V88H116.921V101.248H119.882V100.044H119.92C120.527 101.026 121.571 101.544 122.862 101.544ZM121.989 99.1542C120.717 99.1542 119.92 98.0796 119.92 96.5046C119.92 94.9482 120.584 93.7809 121.951 93.7809C123.204 93.7809 123.868 94.8556 123.868 96.4861C123.868 98.1351 123.204 99.1542 121.989 99.1542Z" fill="white"/>
<path d="M72.375 71.9062V61.5937H74.125V71.9062H72.375ZM68.0938 67.625V65.875H78.4063V67.625H68.0938Z" fill="white"/>
</g>
<defs>
<clipPath id="clip0_14_414">
<rect width="136" height="136" fill="white"/>
</clipPath>
</defs>
</svg>
