<svg width="127" height="126" viewBox="0 0 127 126" fill="none" xmlns="http://www.w3.org/2000/svg">
<g clip-path="url(#clip0_31_591)">
<mask id="mask0_31_591" style="mask-type:luminance" maskUnits="userSpaceOnUse" x="0" y="0" width="127" height="126">
<path d="M127 0H0.674805V125.045H127V0Z" fill="white"/>
</mask>
<g mask="url(#mask0_31_591)">
<path d="M2.38184 85.6225V1.70709H85.5299L124.866 41.5276V123.338H42.1129L2.38184 85.6225Z" stroke="black" stroke-width="3.4142"/>
<path d="M38.3976 80.673V84.9917H35.9053V73.1619H40.4291C41.6581 73.1619 42.6312 73.4976 43.3482 74.1691C44.0652 74.8406 44.4237 75.7566 44.4237 76.9175C44.4237 78.0784 44.0652 78.9944 43.3482 79.6655C42.6312 80.3374 41.6581 80.673 40.4291 80.673H38.3976ZM38.3976 78.7611H40.1388C40.7078 78.7611 41.1404 78.6075 41.4363 78.3003C41.7436 77.9816 41.8972 77.5207 41.8972 76.9175C41.8972 76.3143 41.7436 75.8591 41.4363 75.5518C41.1404 75.2332 40.7078 75.0739 40.1388 75.0739H38.3976V78.7611ZM52.5592 84.9917L51.7227 82.2947H47.6769L46.8746 84.9917H44.1944L48.3598 73.1619H51.1764L55.3418 84.9917H52.5592ZM48.2232 80.4511H51.1935L49.6912 75.5006L48.2232 80.4511ZM56.8105 84.9917V73.1619H61.3685C62.5976 73.1619 63.5707 73.4863 64.2877 74.1349C65.0046 74.7836 65.3631 75.6656 65.3631 76.7809C65.3631 77.4638 65.1753 78.0784 64.7998 78.6246C64.4242 79.1705 63.895 79.5977 63.2122 79.9048L66.1484 84.9917H63.5024L60.9417 80.3998H59.2688V84.9917H56.8105ZM59.2688 78.6246H61.0442C62.2391 78.6246 62.8366 78.0214 62.8366 76.8151C62.8366 75.6315 62.2505 75.0397 61.0783 75.0397H59.2688V78.6246ZM70.1211 84.9917V75.2104H66.5191V73.1619H76.2838V75.2104H72.6817V84.9917H70.1211ZM80.1029 76.7809V84.9917H77.8492V73.1619H80.5806L85.3943 81.4412V73.1619H87.6477V84.9917H84.9167L80.1029 76.7809ZM90.3858 84.9917V73.1619H98.1698V75.1422H92.9462V77.9418H97.1971V79.9221H92.9462V83.0116H98.1698V84.9917H90.3858ZM100.255 84.9917V73.1619H104.813C106.042 73.1619 107.015 73.4863 107.732 74.1349C108.449 74.7836 108.807 75.6656 108.807 76.7809C108.807 77.4638 108.62 78.0784 108.244 78.6246C107.868 79.1705 107.339 79.5977 106.656 79.9048L109.593 84.9917H106.947L104.386 80.3998H102.713V84.9917H100.255ZM102.713 78.6246H104.488C105.684 78.6246 106.281 78.0214 106.281 76.8151C106.281 75.6315 105.695 75.0397 104.522 75.0397H102.713V78.6246Z" fill="black"/>
<path d="M65.4357 97.9708C65.6815 97.9708 65.9222 97.9479 66.1578 97.9021V96.496H65.0593V95.7586H67.0335V98.3703C66.803 98.4935 66.5316 98.5906 66.2193 98.6625C65.912 98.7288 65.5944 98.7619 65.2667 98.7619C64.4268 98.7619 63.7866 98.529 63.3461 98.0632C62.9057 97.5974 62.6855 96.9239 62.6855 96.0428C62.6855 95.1467 62.9109 94.4606 63.3615 93.9845C63.8173 93.5029 64.4703 93.2621 65.3205 93.2621C65.8941 93.2621 66.4036 93.3671 66.8492 93.5771V94.3224C66.3217 94.1432 65.8352 94.0532 65.3896 94.0532C64.7955 94.0532 64.3551 94.2071 64.0683 94.5142C63.7815 94.8214 63.6381 95.3006 63.6381 95.9504V96.1123C63.6381 96.7518 63.7815 97.2231 64.0683 97.5255C64.3602 97.8224 64.816 97.9708 65.4357 97.9708ZM68.7656 96.9342C68.781 97.3234 68.8885 97.61 69.0883 97.794C69.2932 97.9732 69.6055 98.0632 70.0254 98.0632C70.4044 98.0632 70.8141 97.9914 71.2546 97.8484V98.4856C71.0804 98.578 70.873 98.6498 70.6324 98.7011C70.3968 98.7572 70.1509 98.7856 69.8949 98.7856C69.2496 98.7856 68.7605 98.6111 68.4276 98.263C68.0947 97.9148 67.9283 97.4079 67.9283 96.7415C67.9283 96.0815 68.0896 95.5667 68.4123 95.198C68.74 94.8293 69.1958 94.6445 69.7797 94.6445C70.2815 94.6445 70.6656 94.7827 70.9319 95.0598C71.2034 95.3306 71.3391 95.7175 71.3391 96.2196C71.3391 96.4857 71.316 96.7242 71.2699 96.9342H68.7656ZM69.7412 95.3054C69.4646 95.3054 69.2393 95.3977 69.0652 95.5817C68.8911 95.7664 68.7913 96.0144 68.7656 96.327H70.5401V96.2654C70.5401 95.9536 70.471 95.7151 70.3327 95.5509C70.1996 95.3875 70.0024 95.3054 69.7412 95.3054ZM74.8129 98.6704V96.0815C74.8129 95.8304 74.7617 95.6488 74.6592 95.5359C74.5568 95.4183 74.3929 95.359 74.1676 95.359C73.8296 95.359 73.4839 95.472 73.1305 95.697V98.6704H72.2241V94.7598H72.9769L73.0691 95.1901C73.5505 94.8269 74.0524 94.6445 74.5747 94.6445C74.9486 94.6445 75.2328 94.7448 75.4274 94.9445C75.6221 95.1388 75.7193 95.423 75.7193 95.7972V98.6704H74.8129ZM77.4378 96.9342C77.4532 97.3234 77.5608 97.61 77.7604 97.794C77.9653 97.9732 78.2777 98.0632 78.6977 98.0632C79.0767 98.0632 79.4863 97.9914 79.9271 97.8484V98.4856C79.7526 98.578 79.5452 98.6498 79.3045 98.7011C79.0689 98.7572 78.8231 98.7856 78.5671 98.7856C77.9218 98.7856 77.4327 98.6111 77.0998 98.263C76.767 97.9148 76.6005 97.4079 76.6005 96.7415C76.6005 96.0815 76.7618 95.5667 77.0844 95.198C77.4122 94.8293 77.868 94.6445 78.4518 94.6445C78.9537 94.6445 79.3378 94.7827 79.6041 95.0598C79.8757 95.3306 80.0115 95.7175 80.0115 96.2196C80.0115 96.4857 79.9879 96.7242 79.9421 96.9342H77.4378ZM78.4135 95.3054C78.1369 95.3054 77.9115 95.3977 77.7375 95.5817C77.5633 95.7664 77.4634 96.0144 77.4378 96.327H79.2124V96.2654C79.2124 95.9536 79.1432 95.7151 79.005 95.5509C78.8718 95.3875 78.6746 95.3054 78.4135 95.3054ZM80.8966 98.6704V94.7598H81.649L81.7722 95.3441C81.9767 95.1182 82.1686 94.9595 82.3478 94.8672C82.527 94.7756 82.722 94.729 82.932 94.729C83.0291 94.729 83.1342 94.7369 83.2471 94.7519V95.5817C83.1034 95.5564 82.9573 95.5438 82.8089 95.5438C82.4299 95.5438 82.0943 95.6409 81.803 95.8351V98.6704H80.8966ZM86.1336 98.6704L86.0641 98.2937C85.8849 98.4469 85.6851 98.5677 85.4649 98.6546C85.2501 98.7414 85.0346 98.7856 84.8198 98.7856C84.4614 98.7856 84.1692 98.6775 83.9442 98.4627C83.7239 98.248 83.6134 97.9685 83.6134 97.625C83.6134 97.246 83.7492 96.9444 84.0208 96.7186C84.2971 96.4936 84.6658 96.3807 85.1269 96.3807C85.3985 96.3807 85.6954 96.4194 86.0183 96.496V96.0428C86.0183 95.7814 85.9615 95.5999 85.8494 95.4972C85.7365 95.3954 85.5391 95.3441 85.258 95.3441C84.8585 95.3441 84.3998 95.4285 83.8826 95.5975V94.9595C84.0721 94.8624 84.3027 94.7859 84.5743 94.729C84.8506 94.6729 85.1269 94.6445 85.4033 94.6445C85.9054 94.6445 86.2741 94.7472 86.5094 94.9517C86.7502 95.1569 86.871 95.4767 86.871 95.9125V98.6704H86.1336ZM85.0732 98.1398C85.2217 98.1398 85.378 98.109 85.5422 98.0482C85.7057 97.9811 85.8644 97.8887 86.0183 97.7711V97.0337C85.7467 96.9776 85.5059 96.9492 85.2959 96.9492C84.7638 96.9492 84.4969 97.1568 84.4969 97.5713C84.4969 97.7505 84.5482 97.8919 84.6508 97.9937C84.7535 98.0916 84.894 98.1398 85.0732 98.1398ZM90.2139 98.578C89.9478 98.6751 89.6612 98.724 89.3533 98.724C88.9491 98.724 88.6498 98.6293 88.4548 98.4398C88.2606 98.2503 88.1627 97.9606 88.1627 97.5713V95.4514H87.5026V94.883L88.1935 94.7827L88.3317 93.6844H89.0691V94.7598H90.1831V95.4514H89.0691V97.5255C89.0691 97.6992 89.1101 97.8248 89.1922 97.9021C89.2791 97.9732 89.4228 98.0095 89.6225 98.0095C89.8373 98.0095 90.0347 97.989 90.2139 97.9479V98.578ZM90.9718 98.6704V94.7598H91.8782V98.6704H90.9718ZM91.425 94.1147C91.2561 94.1147 91.1234 94.069 91.0255 93.9766C90.9284 93.8842 90.8795 93.7563 90.8795 93.5921C90.8795 93.4286 90.9284 93.3007 91.0255 93.2084C91.1234 93.116 91.2561 93.0702 91.425 93.0702C91.594 93.0702 91.7274 93.116 91.8245 93.2084C91.9217 93.3007 91.9706 93.4286 91.9706 93.5921C91.9706 93.7563 91.9217 93.8842 91.8245 93.9766C91.7274 94.069 91.594 94.1147 91.425 94.1147ZM94.0258 98.6704L92.5122 94.7598H93.4802L94.4711 97.8556L95.4777 94.7598H96.407L94.9014 98.6704H94.0258ZM97.5802 96.9342C97.596 97.3234 97.7034 97.61 97.9032 97.794C98.1077 97.9732 98.4203 98.0632 98.8403 98.0632C99.2193 98.0632 99.6291 97.9914 100.07 97.8484V98.4856C99.8952 98.578 99.6875 98.6498 99.4475 98.7011C99.2114 98.7572 98.9659 98.7856 98.7101 98.7856C98.0642 98.7856 97.5755 98.6111 97.2423 98.263C96.9099 97.9148 96.7433 97.4079 96.7433 96.7415C96.7433 96.0815 96.9044 95.5667 97.2273 95.198C97.555 94.8293 98.0105 94.6445 98.5948 94.6445C99.0962 94.6445 99.4807 94.7827 99.7467 95.0598C100.018 95.3306 100.154 95.7175 100.154 96.2196C100.154 96.4857 100.131 96.7242 100.085 96.9342H97.5802ZM98.5561 95.3054C98.2798 95.3054 98.054 95.3977 97.8803 95.5817C97.7058 95.7664 97.6063 96.0144 97.5802 96.327H99.3551V96.2654C99.3551 95.9536 99.2856 95.7151 99.1475 95.5509C99.014 95.3875 98.8174 95.3054 98.5561 95.3054ZM106.445 98.6704L105.999 97.3337H103.956L103.525 98.6704H102.557L104.493 93.3465H105.508L107.436 98.6704H106.445ZM104.178 96.6499H105.784L104.977 94.1913L104.178 96.6499ZM108.161 98.6704V93.3465H109.098V98.6704H108.161ZM70.0476 107.999C69.643 108.157 69.1821 108.236 68.6648 108.236C67.8148 108.236 67.172 108.011 66.7367 107.561C66.3065 107.11 66.0914 106.444 66.0914 105.563C66.0914 104.657 66.3142 103.96 66.7597 103.474C67.2104 102.982 67.8557 102.736 68.6956 102.736C69.1565 102.736 69.5816 102.805 69.9708 102.944V103.712C69.4638 103.604 69.0669 103.55 68.7801 103.55C68.2014 103.55 67.7712 103.702 67.4895 104.004C67.2078 104.306 67.067 104.772 67.067 105.402V105.587C67.067 106.211 67.2053 106.675 67.4818 106.977C67.7635 107.274 68.1911 107.422 68.7647 107.422C69.0874 107.422 69.515 107.358 70.0476 107.23V107.999ZM72.5412 108.26C71.9472 108.26 71.4837 108.078 71.1508 107.714C70.8179 107.346 70.6515 106.836 70.6515 106.186C70.6515 105.535 70.8179 105.028 71.1508 104.664C71.4837 104.301 71.9472 104.119 72.5412 104.119C73.1353 104.119 73.5988 104.301 73.9317 104.664C74.2645 105.028 74.431 105.535 74.431 106.186C74.431 106.836 74.2645 107.346 73.9317 107.714C73.5988 108.078 73.1353 108.26 72.5412 108.26ZM72.5412 107.546C73.1865 107.546 73.5092 107.092 73.5092 106.186C73.5092 105.284 73.1865 104.833 72.5412 104.833C71.8959 104.833 71.5733 105.284 71.5733 106.186C71.5733 107.092 71.8959 107.546 72.5412 107.546ZM80.2847 108.145V105.494C80.2847 105.259 80.2381 105.089 80.1466 104.987C80.0542 104.885 79.9034 104.833 79.6934 104.833C79.5343 104.833 79.3652 104.862 79.186 104.918C79.0068 104.969 78.8505 105.036 78.7174 105.118V108.145H77.811V105.494C77.811 105.259 77.7648 105.089 77.6726 104.987C77.5805 104.885 77.4294 104.833 77.2194 104.833C77.0709 104.833 76.9096 104.86 76.7355 104.91C76.5665 104.957 76.4026 105.025 76.2438 105.118V108.145H75.3374V104.234H76.0902L76.1746 104.626C76.4308 104.452 76.6714 104.324 76.8968 104.242C77.1272 104.16 77.3577 104.119 77.5882 104.119C78.0645 104.119 78.3922 104.296 78.5714 104.649C79.0836 104.296 79.5753 104.119 80.0463 104.119C80.4103 104.119 80.6913 104.219 80.8911 104.419C81.0908 104.613 81.1911 104.897 81.1911 105.272V108.145H80.2847ZM82.2767 109.727V104.234H83.0291L83.1136 104.626C83.2928 104.462 83.4902 104.337 83.7058 104.25C83.9261 104.162 84.1534 104.119 84.3895 104.119C84.8759 104.119 85.2619 104.301 85.5493 104.664C85.8407 105.028 85.9867 105.517 85.9867 106.131C85.9867 106.541 85.9204 106.905 85.787 107.223C85.6543 107.535 85.4617 107.781 85.2114 107.96C84.9603 108.139 84.6658 108.229 84.3279 108.229C84.1124 108.229 83.9055 108.193 83.7058 108.121C83.506 108.044 83.3315 107.939 83.1831 107.807V109.727H82.2767ZM84.1053 104.833C83.7721 104.833 83.465 104.931 83.1831 105.126V107.215C83.4697 107.414 83.7745 107.515 84.0974 107.515C84.425 107.515 84.6682 107.404 84.8269 107.184C84.9856 106.959 85.0654 106.619 85.0654 106.162C85.0654 105.712 84.9856 105.379 84.8269 105.164C84.6737 104.944 84.4329 104.833 84.1053 104.833ZM87.5279 106.409C87.5429 106.798 87.6511 107.084 87.8508 107.268C88.0553 107.448 88.368 107.538 88.788 107.538C89.167 107.538 89.5767 107.466 90.0165 107.323V107.96C89.8428 108.052 89.6352 108.124 89.3944 108.176C89.1591 108.232 88.9135 108.26 88.6569 108.26C88.0119 108.26 87.5224 108.086 87.19 107.737C86.8568 107.389 86.6902 106.882 86.6902 106.216C86.6902 105.556 86.8521 105.041 87.1742 104.672C87.5026 104.304 87.9582 104.119 88.5417 104.119C89.0438 104.119 89.4275 104.257 89.6944 104.534C89.966 104.805 90.101 105.192 90.101 105.694C90.101 105.96 90.0781 106.199 90.0323 106.409H87.5279ZM88.5038 104.78C88.2266 104.78 88.0016 104.872 87.8271 105.056C87.6534 105.241 87.5532 105.489 87.5279 105.801H89.3028V105.74C89.3028 105.428 89.2333 105.19 89.0951 105.025C88.9617 104.862 88.7643 104.78 88.5038 104.78ZM93.2449 108.052C92.9788 108.149 92.6915 108.198 92.3843 108.198C91.9801 108.198 91.6801 108.104 91.4858 107.914C91.2908 107.725 91.1937 107.435 91.1937 107.046V104.926H90.5329V104.357L91.2245 104.257L91.3627 103.159H92.1001V104.234H93.2141V104.926H92.1001V107C92.1001 107.174 92.1412 107.299 92.2233 107.377C92.3101 107.448 92.4538 107.484 92.6536 107.484C92.8683 107.484 93.0657 107.463 93.2449 107.422V108.052ZM94.61 106.409C94.625 106.798 94.7324 107.084 94.9322 107.268C95.1374 107.448 95.4493 107.538 95.8693 107.538C96.2483 107.538 96.6581 107.466 97.0986 107.323V107.96C96.9241 108.052 96.7173 108.124 96.4765 108.176C96.2412 108.232 95.9949 108.26 95.7391 108.26C95.094 108.26 94.6045 108.086 94.2713 107.737C93.9389 107.389 93.7723 106.882 93.7723 106.216C93.7723 105.556 93.9334 105.041 94.2563 104.672C94.584 104.304 95.0395 104.119 95.6238 104.119C96.1259 104.119 96.5096 104.257 96.7757 104.534C97.0473 104.805 97.1831 105.192 97.1831 105.694C97.1831 105.96 97.1602 106.199 97.1136 106.409H94.61ZM95.5851 104.78C95.3088 104.78 95.0837 104.872 94.9093 105.056C94.7348 105.241 94.6353 105.489 94.61 105.801H96.3841V105.74C96.3841 105.428 96.3154 105.19 96.1765 105.025C96.0438 104.862 95.8464 104.78 95.5851 104.78ZM100.657 108.145V105.556C100.657 105.305 100.606 105.123 100.503 105.01C100.401 104.893 100.237 104.833 100.012 104.833C99.6733 104.833 99.3283 104.946 98.9746 105.171V108.145H98.0682V104.234H98.8206L98.913 104.664C99.3946 104.301 99.8967 104.119 100.419 104.119C100.793 104.119 101.077 104.219 101.271 104.419C101.466 104.613 101.563 104.897 101.563 105.272V108.145H100.657ZM105.394 107.991C105.092 108.149 104.731 108.229 104.311 108.229C103.712 108.229 103.251 108.055 102.929 107.707C102.606 107.358 102.445 106.864 102.445 106.224C102.445 105.569 102.611 105.059 102.944 104.695C103.277 104.331 103.743 104.15 104.342 104.15C104.716 104.15 105.056 104.226 105.363 104.38V105.018C105.021 104.92 104.729 104.872 104.488 104.872C104.104 104.872 103.82 104.977 103.635 105.187C103.456 105.392 103.367 105.712 103.367 106.147V106.247C103.367 106.677 103.456 106.994 103.635 107.2C103.82 107.404 104.104 107.507 104.488 107.507C104.764 107.507 105.067 107.455 105.394 107.353V107.991ZM107.335 108.191L105.806 104.234H106.774L107.764 107.33L108.771 104.234H109.7L107.949 108.767C107.806 109.14 107.637 109.41 107.442 109.573C107.247 109.737 106.994 109.819 106.682 109.819C106.451 109.819 106.236 109.781 106.036 109.704V109.074C106.159 109.099 106.29 109.113 106.428 109.113C106.648 109.113 106.812 109.072 106.92 108.99C107.027 108.913 107.132 108.736 107.235 108.46L107.335 108.191Z" fill="black"/>
<path d="M27.6928 27.2236C27.6928 27.7517 27.752 28.1782 27.8556 28.4904C27.9739 28.8044 28.1219 29.147 28.329 29.5181C28.4029 29.6305 28.4325 29.7447 28.4325 29.8446C28.4325 29.9873 28.3438 30.1301 28.1515 30.2728L27.2212 30.8705C27.1088 30.9487 26.9751 30.9934 26.8366 30.9989C26.6886 30.9989 26.5407 30.9276 26.3945 30.7991C26.1959 30.593 26.0182 30.369 25.8638 30.1301C25.6985 29.8565 25.5455 29.576 25.4052 29.2898C24.2548 30.5993 22.8068 31.2541 21.0647 31.2541C19.8256 31.2541 18.8362 30.9134 18.1131 30.23C17.39 29.5449 17.022 28.6349 17.022 27.4948C17.022 26.2852 17.464 25.3003 18.3646 24.5616C19.2653 23.8212 20.4599 23.4501 21.9801 23.4501C22.4832 23.4501 22.9991 23.4929 23.5447 23.5643C24.0921 23.6357 24.6543 23.7498 25.2424 23.8783V22.8382C25.2424 21.7552 25.0076 21.0004 24.5489 20.5597C24.0773 20.1173 23.2802 19.905 22.1447 19.905C21.6269 19.905 21.0943 19.9603 20.5487 20.0888C20.0032 20.2172 19.4706 20.3742 18.9546 20.574C18.7863 20.6467 18.6134 20.7087 18.4367 20.7596C18.3607 20.7832 18.2817 20.7971 18.2019 20.8006C17.9948 20.8006 17.8912 20.6579 17.8912 20.3599V19.6623C17.8912 19.4339 17.9208 19.2627 17.9948 19.1627C18.1065 19.0332 18.2484 18.9311 18.409 18.8648C18.925 18.6078 19.5445 18.3938 20.2676 18.2225C21.0203 18.0366 21.7949 17.946 22.5719 17.9531C24.3288 17.9531 25.6123 18.3385 26.439 19.1075C27.2509 19.8746 27.6632 21.0432 27.6632 22.6097V27.2236H27.6928ZM21.7008 29.3896C22.1873 29.3896 22.6885 29.304 23.2211 29.1327C23.7518 28.9615 24.2253 28.6492 24.6229 28.2228C24.8596 27.9516 25.0372 27.6519 25.1259 27.3093C25.2128 26.9685 25.2739 26.5546 25.2739 26.0711V25.4734C24.8258 25.368 24.372 25.287 23.9145 25.2308C23.4545 25.1743 22.9912 25.1457 22.5275 25.1451C21.5381 25.1451 20.8151 25.3306 20.3268 25.716C19.8404 26.0996 19.6056 26.6402 19.6056 27.3521C19.6056 28.0212 19.7812 28.5208 20.1511 28.8615C20.5043 29.2184 21.0203 29.3896 21.7008 29.3896ZM33.5553 30.9276C33.289 30.9276 33.1115 30.8848 32.9931 30.7849C32.8748 30.6992 32.7712 30.4994 32.6825 30.23L29.2148 19.2198C29.1474 19.0352 29.1027 18.8436 29.0817 18.6489C29.0817 18.4206 29.2001 18.2921 29.4349 18.2921H30.8829C31.1622 18.2921 31.3545 18.3366 31.4563 18.4348C31.5765 18.5204 31.6653 18.7203 31.7521 18.9915L34.234 28.4191L36.5365 18.9915C36.6105 18.706 36.6992 18.5204 36.8157 18.4348C36.9932 18.3298 37.1998 18.28 37.4076 18.2921H38.5875C38.8685 18.2921 39.0609 18.3366 39.1792 18.4348C39.2957 18.5204 39.4011 18.7203 39.4585 18.9915L41.7906 28.5332L44.3445 18.9915C44.4333 18.706 44.5368 18.5204 44.6404 18.4348C44.8117 18.3298 45.0131 18.2799 45.2156 18.2921H46.5897C46.8245 18.2921 46.9595 18.408 46.9595 18.6489C46.9595 18.7203 46.9429 18.7916 46.9281 18.8773C46.905 18.9991 46.8703 19.1184 46.8245 19.2341L43.2682 30.2425C43.1795 30.528 43.0759 30.7117 42.9575 30.7974C42.7908 30.9005 42.5948 30.9505 42.3971 30.9401H41.1266C40.8473 30.9401 40.655 30.8972 40.5348 30.7974C40.4183 30.6974 40.3148 30.5119 40.2574 30.2265L37.9679 21.0415L35.6932 30.2122C35.6192 30.4976 35.5323 30.6832 35.4158 30.7831C35.2956 30.883 35.0885 30.9258 34.824 30.9258L33.5553 30.9276ZM52.5224 31.3112C51.755 31.3112 50.9875 31.2255 50.2496 31.0561C49.5117 30.8848 48.9365 30.6992 48.5518 30.4851C48.3151 30.3585 48.1542 30.2157 48.095 30.0873C48.0374 29.9613 48.0071 29.8253 48.0063 29.6876V28.9615C48.0063 28.6635 48.1246 28.5208 48.3447 28.5208C48.4335 28.5208 48.5222 28.535 48.6111 28.5635C48.6998 28.5921 48.8329 28.6492 48.9809 28.7063C49.4821 28.9204 50.0276 29.0899 50.6046 29.2041C51.1946 29.3183 51.7697 29.3753 52.3615 29.3753C53.2899 29.3753 54.0149 29.2184 54.5161 28.9044C54.7563 28.7643 54.9539 28.5654 55.0886 28.3279C55.2235 28.0904 55.2907 27.8226 55.2836 27.5519C55.2889 27.3686 55.2566 27.186 55.1883 27.0148C55.12 26.8436 55.0173 26.6872 54.886 26.5546C54.6196 26.2852 54.1166 26.0426 53.3935 25.8142L51.2538 25.1719C50.1756 24.8453 49.3785 24.3618 48.8921 23.7213C48.4161 23.1302 48.156 22.4038 48.1524 21.6552C48.1524 21.0575 48.2873 20.5312 48.5518 20.0745C48.8181 19.6195 49.1714 19.2198 49.6153 18.9076C50.0591 18.5793 50.5584 18.3366 51.1502 18.1672C51.742 17.9959 52.3616 17.9245 53.0106 17.9245C53.3343 17.9245 53.6746 17.9388 54.0001 17.9816C54.3385 18.0245 54.6474 18.0815 54.958 18.1386C55.254 18.21 55.535 18.2814 55.7995 18.3652C56.0658 18.4509 56.2729 18.5365 56.4209 18.6221C56.5952 18.7068 56.747 18.8288 56.8648 18.979C56.9601 19.1176 57.0062 19.2822 56.9961 19.4482V20.1173C56.9961 20.4171 56.8777 20.574 56.6558 20.574C56.4593 20.5523 56.269 20.4941 56.0954 20.4028C55.2036 20.0227 54.237 19.8334 53.2622 19.8479C52.4207 19.8479 51.755 19.9745 51.2982 20.2457C50.8395 20.5169 50.6046 20.9291 50.6046 21.5125C50.6046 21.9122 50.7526 22.2547 51.0485 22.5242C51.3425 22.7953 51.8881 23.0665 52.6704 23.3092L54.7676 23.9479C55.8291 24.2762 56.5984 24.733 57.0552 25.3163C57.512 25.8998 57.734 26.5689 57.734 27.3093C57.734 27.9213 57.6008 28.478 57.3511 28.9615C57.0848 29.4467 56.7298 29.8731 56.2729 30.2157C55.8143 30.5726 55.2687 30.8277 54.6344 31.0132C53.9687 31.2113 53.277 31.3112 52.5224 31.3112Z" fill="#252F3E"/>
<path d="M55.3129 38.2339C50.4564 41.6951 43.3993 43.5311 37.3333 43.5311C28.8299 43.5311 21.1699 40.4979 15.3813 35.4559C14.9245 35.058 15.337 34.5157 15.8843 34.8297C22.1426 38.3319 29.8637 40.4552 37.8493 40.4552C43.2384 40.4552 49.1563 39.3722 54.6046 37.1509C55.4164 36.794 56.11 37.6629 55.3129 38.2339ZM57.3361 36.0108C56.7147 35.2436 53.2305 35.6414 51.6512 35.827C51.1796 35.8841 51.1056 35.4844 51.5346 35.1847C54.3086 33.3059 58.871 33.8465 59.4019 34.4728C59.9326 35.1151 59.2539 39.5149 56.6555 41.622C56.2579 41.9503 55.8732 41.779 56.0508 41.3526C56.6426 39.9431 57.9556 36.7672 57.3361 36.0108Z" fill="#FF9900"/>
</g>
</g>
<defs>
<clipPath id="clip0_31_591">
<rect width="126.325" height="125.536" fill="white" transform="translate(0.674805)"/>
</clipPath>
</defs>
</svg>
