<svg width="256" height="255" viewBox="0 0 256 255" fill="none" xmlns="http://www.w3.org/2000/svg">
<circle cx="128" cy="127.5" r="127.5" fill="#F3F3F3"/>
<path d="M62.9492 174.337H83.9894V133.557C83.9894 130.495 83.7461 119.229 83.7461 119.229H83.9894C83.9894 119.229 88.7325 128.658 90.192 130.985L115.732 174.337H137.38V86.776H116.34V128.291C116.34 131.352 116.583 141.884 116.583 141.884H116.34C116.34 141.884 111.719 133.189 110.381 130.74L84.5975 86.776H62.9492V174.337Z" fill="#121212"/>
<path d="M176.78 151.375C184.685 151.375 191.01 149.293 196.239 145.619C201.712 141.823 205.361 136.435 206.699 130.801H187.361C185.658 134.72 182.253 137.047 177.023 137.047C168.875 137.047 164.253 131.781 163.037 123.331H207.793C207.915 110.595 204.266 99.6958 196.847 92.8379C191.496 87.9394 184.442 85.0002 175.564 85.0002C156.591 85.0002 143.578 99.3284 143.578 118.065C143.578 137.047 156.227 151.375 176.78 151.375ZM163.159 111.452C164.497 103.982 168.389 99.2059 175.929 99.2059C182.375 99.2059 186.996 103.982 187.726 111.452H163.159Z" fill="#121212"/>
</svg>
