<svg width="88" height="133" viewBox="0 0 88 133" fill="none" xmlns="http://www.w3.org/2000/svg">
<g clip-path="url(#clip0_6_72)">
<path fill-rule="evenodd" clip-rule="evenodd" d="M9.06559 65.5604L8.31716 70.2277L28.3962 50.1487L23.7289 50.8971L9.06559 65.5604ZM6.82025 79.5626L7.5687 74.8952L33.0637 49.4002L37.7311 48.6518L6.82025 79.5626ZM6.07179 84.2301L5.32325 88.8981L47.0666 47.1548L42.3985 47.9033L6.07179 84.2301ZM3.8264 98.2327L4.57479 93.5656L51.734 46.4063L56.4011 45.6579L3.8264 98.2327ZM3.07794 102.9L2.3295 107.567L65.736 44.161L61.0686 44.9095L3.07794 102.9ZM0.832605 116.902L1.58104 112.235L70.4034 43.4126L75.0708 42.6642L0.832605 116.902ZM0.0841474 121.57L-0.664354 126.238L84.406 41.1672L79.7383 41.9157L0.0841474 121.57ZM5.89754 127.514L1.23019 128.262L86.4305 43.0617L85.6821 47.7291L5.89754 127.514ZM10.565 126.765L15.2324 126.017L84.1851 57.064L84.9336 52.3966L10.565 126.765ZM24.5669 124.52L19.8999 125.268L83.4367 61.7314L82.6883 66.3985L24.5669 124.52ZM29.2344 123.771L33.9025 123.023L81.1913 75.734L81.9398 71.066L29.2344 123.771ZM43.2373 121.526L38.57 122.274L80.4428 80.4015L79.6944 85.0689L43.2373 121.526ZM47.9048 120.777L52.5722 120.029L78.1975 94.4037L78.9459 89.7363L47.9048 120.777ZM61.9067 118.532L57.2397 119.281L77.449 99.0712L76.7007 103.738L61.9067 118.532ZM66.5742 117.784L71.2422 117.035L75.2036 113.074L75.9522 108.406L66.5742 117.784ZM19.0614 51.6456L11.092 52.9235L9.81404 60.893L19.0614 51.6456Z" fill="#393939"/>
</g>
<rect x="16.5" y="3.83594" width="58.3" height="58.3" rx="29.15" fill="url(#paint0_linear_6_72)"/>
<defs>
<linearGradient id="paint0_linear_6_72" x1="100.611" y1="-139.368" x2="-23.5141" y2="23.3917" gradientUnits="userSpaceOnUse">
<stop stop-color="#FFCCBD"/>
<stop offset="0.3125" stop-color="#D8B0FF"/>
<stop offset="0.600448" stop-color="#A7CAFF"/>
<stop offset="1" stop-color="#E1FFA3"/>
</linearGradient>
<clipPath id="clip0_6_72">
<rect x="16.5" y="48.9492" width="58.3" height="58.3" rx="29.15" fill="white"/>
</clipPath>
</defs>
</svg>
