<svg width="88" height="133" viewBox="0 0 88 133" fill="none" xmlns="http://www.w3.org/2000/svg">
<g clip-path="url(#clip0_6_127)">
<path d="M61.9874 57.0202C63.35 47.2114 56.4945 38.1564 46.6755 36.7953C36.8564 35.4342 27.7919 42.2824 26.4294 52.0913C25.0669 61.9002 31.9223 70.9552 41.7414 72.3163C51.5605 73.6774 60.6249 66.8291 61.9874 57.0202Z" fill="url(#paint0_linear_6_127)"/>
<path d="M44.0728 105.036C43.9491 105.036 43.8181 105.007 43.7089 104.941C43.4832 104.811 43.3449 104.571 43.3449 104.309L43.4832 54.5596C43.4832 54.3051 43.6215 54.0652 43.8472 53.9343L86.9082 28.9361C87.1339 28.8052 87.4104 28.8052 87.6361 28.9361C87.8617 29.0669 88 29.3069 88 29.5686L87.8617 79.3179C87.8617 79.5724 87.7234 79.8124 87.4978 79.9432L44.4368 104.941C44.3203 105.007 44.1966 105.043 44.0728 105.043V105.036ZM44.939 54.9741L44.8007 103.044L86.3987 78.8962L86.537 30.8266L44.939 54.9741Z" stroke="#393939" stroke-width="1.93359" stroke-miterlimit="10"/>
<path d="M44.2111 55.2867C44.0874 55.2867 43.9563 55.2576 43.8472 55.1922L0.502243 30.1867C0.276602 30.0558 0.138306 29.8158 0.138306 29.5613C0.138306 29.3068 0.276602 29.0596 0.502243 28.9287L43.5633 3.93776C43.7889 3.80688 44.0655 3.80688 44.2912 3.93776L87.6361 28.936C87.8617 29.0669 88 29.3068 88 29.5613C88 29.8158 87.8617 30.063 87.6361 30.1939L44.575 55.1922C44.4586 55.2576 44.3348 55.294 44.2111 55.294V55.2867ZM2.32193 29.5613L44.2111 53.7234L85.8164 29.5686L43.9272 5.40653L2.32193 29.5613Z" stroke="#393939" stroke-width="1.93359" stroke-miterlimit="10"/>
<path d="M44.0728 105.036C43.949 105.036 43.818 105.007 43.7088 104.941L0.363937 79.9432C0.138296 79.8124 0 79.5724 0 79.3106L0.138296 29.5614C0.138296 29.2996 0.276592 29.0597 0.502233 28.9361C0.727874 28.8052 1.00447 28.8052 1.23011 28.9361L44.575 53.9343C44.8007 54.0652 44.939 54.3051 44.939 54.5669L44.8007 104.316C44.8007 104.578 44.6624 104.818 44.4367 104.941C44.3275 105.007 44.1965 105.036 44.0728 105.036ZM1.45575 78.8962L43.3449 103.058L43.4832 54.9813L1.59404 30.8193L1.45575 78.8962Z" stroke="#393939" stroke-width="1.93359" stroke-miterlimit="10"/>
</g>
<defs>
<linearGradient id="paint0_linear_6_127" x1="-56.2614" y1="6.49732" x2="32.4099" y2="95.9774" gradientUnits="userSpaceOnUse">
<stop stop-color="#FFCCBD"/>
<stop offset="0.3125" stop-color="#D8B0FF"/>
<stop offset="0.600448" stop-color="#A7CAFF"/>
<stop offset="1" stop-color="#E1FFA3"/>
</linearGradient>
<clipPath id="clip0_6_127">
<rect width="88" height="101.2" fill="white" transform="translate(0 3.83594)"/>
</clipPath>
</defs>
</svg>
