<svg width="31" height="30" viewBox="0 0 31 30" fill="none" xmlns="http://www.w3.org/2000/svg">
<rect x="0.0322266" width="30" height="29.997" rx="14.9985" fill="#1A1A1A"/>
<path d="M8.7632 12.1132H11.5731V21.2443H8.7632V12.1132ZM10.1681 7.59778C11.0713 7.59778 11.7738 8.30017 11.7738 9.20325C11.7738 10.1063 11.0713 10.8087 10.1681 10.8087C9.26496 10.9091 8.5625 10.1063 8.5625 9.20325C8.5625 8.30017 9.26496 7.59778 10.1681 7.59778Z" fill="white"/>
<path d="M13.3789 12.1127H16.0884V13.3169C16.5902 12.6145 17.4933 11.912 18.8983 11.912C21.8085 11.912 22.3102 13.8187 22.3102 16.2271V21.2447H19.5004V16.8292C19.5004 15.7254 19.5004 14.4208 17.9951 14.4208C16.4898 14.4208 16.2891 15.5247 16.2891 16.7289V21.2447H13.3789V12.1127Z" fill="white"/>
</svg>
