<svg width="31" height="30" viewBox="0 0 31 30" fill="none" xmlns="http://www.w3.org/2000/svg">
<rect x="0.0976562" width="30.0213" height="29.997" rx="14.9985" fill="#1A1A1A"/>
<path d="M15.7663 14.998C15.7663 18.2944 13.2994 20.9711 10.2435 20.9711C7.18755 20.9711 4.7207 18.2944 4.7207 14.998C4.7207 11.7017 7.18755 9.02502 10.2435 9.02502C13.2994 9.02502 15.7663 11.7017 15.7663 14.998ZM21.8168 14.998C21.8168 18.0966 20.5772 20.6151 19.0554 20.6151C17.5336 20.6151 16.294 18.0966 16.294 14.998C16.294 11.8995 17.5336 9.38103 19.0554 9.38103C20.5772 9.38103 21.8168 11.8863 21.8168 14.998ZM24.2959 14.998C24.2959 17.7802 23.8664 20.0349 23.3264 20.0349C22.7864 20.0349 22.3568 17.7802 22.3568 14.998C22.3568 12.2159 22.7864 9.96119 23.3264 9.96119C23.8664 9.96119 24.2959 12.2159 24.2959 14.998Z" fill="white"/>
</svg>
