<svg width="158" height="27" viewBox="0 0 158 27" fill="none" xmlns="http://www.w3.org/2000/svg">
<path d="M0 27H5.0868V17.2005C5.0868 16.4649 5.02799 13.7575 5.02799 13.7575H5.0868C5.0868 13.7575 6.23354 16.0234 6.58638 16.5826L12.7611 27H17.9949V5.95913H12.9081V15.9352C12.9081 16.6708 12.9669 19.2016 12.9669 19.2016H12.9081C12.9081 19.2016 11.7908 17.1123 11.4674 16.5237L5.23382 5.95913H0V27Z" fill="white"/>
<path d="M27.5205 21.4823C29.4317 21.4823 30.9607 20.982 32.2251 20.0992C33.5482 19.1869 34.4303 17.8921 34.7538 16.5384H30.0786C29.667 17.4801 28.8437 18.0392 27.5793 18.0392C25.6093 18.0392 24.4919 16.7738 24.1979 14.7433H35.0184C35.0478 11.6828 34.1657 9.06376 32.3721 7.4158C31.0783 6.23869 29.3729 5.53242 27.2265 5.53242C22.6395 5.53242 19.4934 8.97548 19.4934 13.4779C19.4934 18.0392 22.5513 21.4823 27.5205 21.4823ZM24.2273 11.8888C24.5507 10.0937 25.4917 8.94605 27.3147 8.94605C28.8731 8.94605 29.9904 10.0937 30.1668 11.8888H24.2273Z" fill="white"/>
<path d="M41.3863 21.4823C43.4739 21.4823 44.7971 20.6583 45.885 19.1869H45.9732V21.0409H50.5602V5.97384H45.7674V14.3902C45.7674 16.1853 44.7677 17.4212 43.1211 17.4212C41.5921 17.4212 40.857 16.509 40.857 14.861V5.97384H36.0937V15.8616C36.0937 19.2163 37.9167 21.4823 41.3863 21.4823Z" fill="white"/>
<path d="M52.454 21.0409H57.2467V14.2725C57.2467 11.006 59.1285 9.56403 62.0689 9.97602H62.1865V5.85613C61.9807 5.76785 61.6866 5.73842 61.2456 5.73842C59.4226 5.73842 58.1876 6.53297 57.1291 8.32806H57.0409V5.97384H52.454V21.0409Z" fill="white"/>
<path d="M70.3914 21.5117C75.243 21.5117 78.4186 18.0687 78.4186 13.5368C78.4186 9.0049 75.243 5.56185 70.3914 5.56185C65.5693 5.56185 62.3349 9.0049 62.3349 13.5368C62.3349 18.0687 65.5693 21.5117 70.3914 21.5117ZM70.362 18.0981C68.2744 18.0981 67.1865 16.2736 67.1865 13.5368C67.1865 10.8 68.2744 8.94605 70.362 8.94605C72.4497 8.94605 73.567 10.8 73.567 13.5368C73.567 16.2736 72.4497 18.0981 70.362 18.0981Z" fill="white"/>
<path d="M79.6271 21.0409H84.4199V12.7128C84.4199 10.8589 85.4784 9.5346 87.0662 9.5346C88.6246 9.5346 89.4185 10.6234 89.4185 12.2125V21.0409H94.2112V11.2414C94.2112 7.88665 92.2706 5.53242 88.9774 5.53242C86.8898 5.53242 85.449 6.41526 84.3317 8.03379H84.2435V5.97384H79.6271V21.0409Z" fill="white"/>
<path d="M102.395 21.5117C106.335 21.5117 109.246 19.8049 109.246 16.509C109.246 12.6539 106.129 11.9771 103.483 11.5357C101.571 11.1826 99.8659 11.0354 99.8659 9.97602C99.8659 9.03433 100.777 8.59291 101.954 8.59291C103.277 8.59291 104.188 9.0049 104.365 10.3586H108.775C108.54 7.38637 106.246 5.53242 101.983 5.53242C98.4251 5.53242 95.4848 7.18038 95.4848 10.3586C95.4848 13.8899 98.2781 14.5962 100.895 15.0376C102.894 15.3907 104.717 15.5379 104.717 16.8915C104.717 17.8627 103.806 18.3924 102.365 18.3924C100.777 18.3924 99.7777 17.6567 99.6013 16.1559H95.0731C95.2201 19.4812 97.9841 21.5117 102.395 21.5117Z" fill="white"/>
<path d="M110.684 21.0409H125.327V16.6267H115.888V0H110.684V21.0409Z" fill="white"/>
<path d="M132.86 18.3629C131.683 18.3629 130.801 17.8921 130.801 16.6856C130.801 15.5379 131.566 15.067 133.418 14.655C134.389 14.4196 135.271 14.1842 135.888 13.8605V15.6556C135.888 17.2741 134.653 18.3629 132.86 18.3629ZM131.331 21.4234C133.595 21.4234 134.918 20.6289 135.8 19.3635H135.859C135.976 20.1286 136.123 20.7172 136.359 21.0409H141.004V20.8349C140.593 20.57 140.475 19.8932 140.475 18.6866V11.0943C140.475 9.2109 139.858 7.73951 138.564 6.79782C137.476 5.97384 135.947 5.56185 133.683 5.56185C129.125 5.56185 126.979 7.9455 126.861 10.7411H131.272C131.419 9.47575 132.183 8.79891 133.712 8.79891C135.153 8.79891 135.771 9.44632 135.771 10.4174C135.771 11.4474 134.771 11.7417 131.948 12.0948C128.831 12.5068 126.185 13.5074 126.185 16.8327C126.185 19.8049 128.331 21.4234 131.331 21.4234Z" fill="white"/>
<path d="M151.59 21.5117C155.471 21.5117 158 18.5101 158 13.5074C158 8.97547 155.471 5.53242 151.561 5.53242C149.502 5.53242 148.209 6.38583 147.268 7.68065H147.18V0H142.387V21.0409H146.974V19.1281H147.033C147.973 20.6877 149.591 21.5117 151.59 21.5117ZM150.237 17.7155C148.267 17.7155 147.033 16.0087 147.033 13.5074C147.033 11.0354 148.062 9.18147 150.179 9.18147C152.119 9.18147 153.148 10.8883 153.148 13.4779C153.148 16.097 152.119 17.7155 150.237 17.7155Z" fill="white"/>
</svg>
