<svg width="294" height="45" viewBox="0 0 294 45" fill="none" xmlns="http://www.w3.org/2000/svg">
<path d="M0 29.173H5.63478V18.5849C5.63478 17.79 5.56964 14.8647 5.56964 14.8647H5.63478C5.63478 14.8647 6.90505 17.313 7.2959 17.9171L14.1358 29.173H19.9334V6.43873H14.2987V17.2176C14.2987 18.0125 14.3638 20.747 14.3638 20.747H14.2987C14.2987 20.747 13.061 18.4895 12.7027 17.8536L5.79763 6.43873H0V29.173Z" fill="white"/>
<path d="M30.4852 23.2112C32.6023 23.2112 34.296 22.6707 35.6965 21.7168C37.1622 20.7311 38.1393 19.3321 38.4976 17.8694H33.3188C32.8628 18.8869 31.9509 19.4911 30.5503 19.4911C28.368 19.4911 27.1303 18.1238 26.8046 15.9299H38.7908C38.8233 12.6231 37.8462 9.79322 35.8594 8.01263C34.4263 6.74079 32.5371 5.97768 30.1594 5.97768C25.0784 5.97768 21.5933 9.69783 21.5933 14.5626C21.5933 19.4911 24.9807 23.2112 30.4852 23.2112ZM26.8372 12.8457C27.1955 10.9061 28.2378 9.66604 30.2572 9.66604C31.9834 9.66604 33.2211 10.9061 33.4165 12.8457H26.8372Z" fill="white"/>
<path d="M45.8447 23.2112C48.1572 23.2112 49.6229 22.3209 50.828 20.7311H50.9257V22.7343H56.0068V6.45462H50.6977V15.5483C50.6977 17.4879 49.5903 18.8233 47.7664 18.8233C46.0727 18.8233 45.2584 17.8377 45.2584 16.0571V6.45462H39.9819V17.1381C39.9819 20.7629 42.0013 23.2112 45.8447 23.2112Z" fill="white"/>
<path d="M58.1046 22.7343H63.4137V15.4211C63.4137 11.8918 65.4982 10.3338 68.7553 10.7789H68.8856V6.32744C68.6576 6.23205 68.3319 6.20025 67.8433 6.20025C65.8239 6.20025 64.4559 7.05875 63.2834 8.99832H63.1857V6.45462H58.1046V22.7343Z" fill="white"/>
<path d="M77.9744 23.243C83.3486 23.243 86.8663 19.5228 86.8663 14.6262C86.8663 9.72963 83.3486 6.00948 77.9744 6.00948C72.6328 6.00948 69.05 9.72963 69.05 14.6262C69.05 19.5228 72.6328 23.243 77.9744 23.243ZM77.9418 19.5546C75.6293 19.5546 74.4242 17.5833 74.4242 14.6262C74.4242 11.6692 75.6293 9.66604 77.9418 9.66604C80.2544 9.66604 81.4921 11.6692 81.4921 14.6262C81.4921 17.5833 80.2544 19.5546 77.9418 19.5546Z" fill="white"/>
<path d="M88.205 22.7343H93.5141V13.7359C93.5141 11.7328 94.6866 10.302 96.4455 10.302C98.1717 10.302 99.0511 11.4784 99.0511 13.1954V22.7343H104.36V12.1461C104.36 8.52137 102.211 5.97768 98.5626 5.97768C96.25 5.97768 94.654 6.93157 93.4164 8.68035H93.3186V6.45462H88.205V22.7343Z" fill="white"/>
<path d="M113.425 23.243C117.79 23.243 121.014 21.3988 121.014 17.8377C121.014 13.6724 117.562 12.941 114.63 12.4641C112.513 12.0825 110.624 11.9236 110.624 10.7789C110.624 9.76142 111.634 9.28448 112.937 9.28448C114.402 9.28448 115.412 9.72963 115.607 11.1923H120.493C120.232 7.98084 117.692 5.97768 112.969 5.97768C109.028 5.97768 105.771 7.75826 105.771 11.1923C105.771 15.0078 108.865 15.7709 111.764 16.2478C113.979 16.6294 115.998 16.7884 115.998 18.251C115.998 19.3003 114.989 19.8726 113.393 19.8726C111.634 19.8726 110.526 19.0777 110.331 17.4561H105.315C105.478 21.0491 108.539 23.243 113.425 23.243Z" fill="white"/>
<path d="M122.607 22.7343H138.827V17.9648H128.372V0H122.607V22.7343Z" fill="white"/>
<path d="M147.172 19.8408C145.869 19.8408 144.892 19.3321 144.892 18.0284C144.892 16.7884 145.739 16.2796 147.791 15.8345C148.866 15.5801 149.843 15.3258 150.527 14.976V16.9156C150.527 18.6644 149.159 19.8408 147.172 19.8408ZM145.478 23.1476C147.986 23.1476 149.452 22.2891 150.429 20.9219H150.494C150.624 21.7486 150.787 22.3845 151.048 22.7343H156.194V22.5117C155.738 22.2255 155.608 21.4942 155.608 20.1906V11.9872C155.608 9.9522 154.924 8.36239 153.491 7.34491C152.286 6.45462 150.592 6.00948 148.084 6.00948C143.035 6.00948 140.658 8.58497 140.527 11.6056H145.413C145.576 10.2384 146.423 9.50705 148.117 9.50705C149.712 9.50705 150.396 10.2066 150.396 11.2558C150.396 12.3687 149.289 12.6867 146.162 13.0682C142.71 13.5134 139.778 14.5944 139.778 18.1874C139.778 21.3988 142.156 23.1476 145.478 23.1476Z" fill="white"/>
<path d="M167.92 23.243C172.22 23.243 175.021 19.9998 175.021 14.5944C175.021 9.69783 172.22 5.97768 167.888 5.97768C165.608 5.97768 164.175 6.89977 163.132 8.2988H163.035V0H157.725V22.7343H162.807V20.6675H162.872C163.914 22.3527 165.705 23.243 167.92 23.243ZM166.422 19.1413C164.24 19.1413 162.872 17.2971 162.872 14.5944C162.872 11.9236 164.012 9.9204 166.357 9.9204C168.506 9.9204 169.646 11.7646 169.646 14.5626C169.646 17.3925 168.506 19.1413 166.422 19.1413Z" fill="white"/>
<path d="M245.524 16.3423C245.524 17.2702 245.614 18.0197 245.771 18.5684C245.952 19.1202 246.177 19.7223 246.49 20.3744C246.603 20.5719 246.649 20.7727 246.649 20.9482C246.649 21.1991 246.514 21.4499 246.221 21.7008L244.807 22.7511C244.635 22.8885 244.432 22.967 244.221 22.9769C243.996 22.9769 243.772 22.8514 243.55 22.6257C243.247 22.2634 242.978 21.8697 242.743 21.4499C242.491 20.9691 242.258 20.4763 242.044 19.973C240.295 22.2745 238.094 23.4253 235.445 23.4253C233.56 23.4253 232.055 22.8264 230.955 21.6255C229.857 20.4215 229.297 18.8224 229.297 16.8187C229.297 14.6929 229.969 12.9621 231.339 11.664C232.708 10.3628 234.525 9.71067 236.837 9.71067C237.602 9.71067 238.385 9.78583 239.216 9.91127C240.048 10.0367 240.902 10.2375 241.797 10.4632V8.63516C241.797 6.73197 241.44 5.40559 240.743 4.63113C240.026 3.85353 238.813 3.48041 237.087 3.48041C236.299 3.48041 235.489 3.57761 234.66 3.80335C233.831 4.02911 233.019 4.30503 232.236 4.65622C231.979 4.78393 231.717 4.89285 231.448 4.9823C231.332 5.02387 231.212 5.04812 231.091 5.05442C230.776 5.05442 230.618 4.80358 230.618 4.27996V3.05397C230.618 2.65263 230.664 2.35162 230.776 2.17604C230.946 1.94839 231.162 1.76894 231.405 1.65241C232.19 1.2009 233.132 0.824637 234.232 0.523628C235.377 0.196918 236.555 0.0377588 237.737 0.0501781C240.408 0.0501781 242.359 0.727436 243.617 2.07884C244.851 3.4271 245.478 5.48084 245.478 8.23383V16.3423H245.524ZM236.412 20.1486C237.152 20.1486 237.913 19.9982 238.723 19.6971C239.53 19.3961 240.251 18.8475 240.855 18.098C241.215 17.6214 241.486 17.0948 241.62 16.4927C241.752 15.8938 241.845 15.1664 241.845 14.3167V13.2663C241.163 13.0811 240.473 12.9387 239.779 12.8398C239.078 12.7408 238.374 12.6905 237.669 12.6894C236.164 12.6894 235.064 13.0154 234.322 13.6926C233.582 14.3668 233.225 15.3169 233.225 16.568C233.225 17.7438 233.493 18.6216 234.056 19.2205C234.592 19.8477 235.377 20.1486 236.412 20.1486ZM254.439 22.8514C254.033 22.8514 253.764 22.7763 253.583 22.6007C253.404 22.4501 253.245 22.0989 253.111 21.6255L247.838 2.27637C247.735 1.95194 247.667 1.61517 247.635 1.27301C247.635 0.871676 247.816 0.645918 248.173 0.645918H250.374C250.799 0.645918 251.092 0.72431 251.247 0.89675C251.43 1.04726 251.565 1.39843 251.697 1.87503L255.471 18.443L258.971 1.87503C259.084 1.37335 259.22 1.04726 259.396 0.89675C259.666 0.71228 259.981 0.624705 260.296 0.645918H262.091C262.519 0.645918 262.81 0.72431 262.991 0.89675C263.167 1.04726 263.329 1.39843 263.415 1.87503L266.961 18.6436L270.845 1.87503C270.981 1.37335 271.138 1.04726 271.295 0.89675C271.556 0.712363 271.862 0.624552 272.17 0.645918H274.259C274.616 0.645918 274.822 0.849726 274.822 1.27301C274.822 1.39843 274.797 1.52386 274.774 1.67436C274.738 1.88831 274.685 2.09822 274.616 2.30146L269.208 21.6474C269.074 22.1491 268.915 22.4721 268.736 22.6226C268.482 22.8038 268.185 22.8916 267.883 22.8734H265.953C265.527 22.8734 265.234 22.7982 265.052 22.6226C264.875 22.447 264.718 22.1209 264.63 21.6192L261.149 5.47771L257.689 21.5941C257.577 22.0959 257.445 22.4219 257.268 22.5975C257.085 22.7731 256.769 22.8484 256.368 22.8484L254.439 22.8514ZM283.281 23.5256C282.114 23.5256 280.947 23.3752 279.825 23.0772C278.703 22.7763 277.828 22.4501 277.243 22.0739C276.883 21.8512 276.638 21.6005 276.548 21.3746C276.461 21.1533 276.415 20.9142 276.413 20.6724V19.3961C276.413 18.8725 276.594 18.6216 276.929 18.6216C277.064 18.6216 277.198 18.6468 277.333 18.6969C277.468 18.7471 277.671 18.8475 277.896 18.9478C278.658 19.324 279.487 19.6219 280.365 19.8226C281.261 20.0233 282.136 20.1236 283.036 20.1236C284.448 20.1236 285.551 19.8477 286.313 19.2958C286.679 19.0498 286.979 18.7003 287.183 18.2828C287.388 17.8654 287.491 17.3948 287.48 16.9192C287.488 16.5969 287.438 16.276 287.336 15.9752C287.231 15.6743 287.074 15.3994 286.876 15.1664C286.47 14.6929 285.705 14.2665 284.606 13.8652L281.352 12.7363C279.712 12.1626 278.5 11.3128 277.761 10.1872C277.037 9.14833 276.641 7.8718 276.636 6.55638C276.636 5.50593 276.841 4.58097 277.243 3.77828C277.648 2.97873 278.186 2.27637 278.86 1.72767C279.535 1.15074 280.294 0.72431 281.195 0.426426C282.095 0.12543 283.036 0 284.024 0C284.516 0 285.033 0.0250892 285.528 0.100342C286.042 0.175594 286.512 0.275935 286.986 0.376262C287.434 0.501678 287.862 0.627109 288.265 0.774474C288.669 0.924979 288.984 1.07548 289.209 1.22599C289.475 1.37473 289.705 1.58926 289.884 1.85308C290.029 2.09657 290.1 2.38598 290.085 2.67772V3.85353C290.085 4.38028 289.904 4.65622 289.566 4.65622C289.268 4.61802 288.979 4.5158 288.715 4.35521C287.358 3.68726 285.888 3.35459 284.406 3.38007C283.127 3.38007 282.114 3.60268 281.42 4.07929C280.722 4.55588 280.365 5.28017 280.365 6.30549C280.365 7.00787 280.59 7.6098 281.04 8.08324C281.486 8.55987 282.317 9.0365 283.506 9.46298L286.695 10.5854C288.309 11.1624 289.479 11.9651 290.173 12.9904C290.868 14.0156 291.205 15.1914 291.205 16.4927C291.205 17.5682 291.004 18.5465 290.623 19.3961C290.219 20.2491 289.679 20.9984 288.984 21.6005C288.287 22.2276 287.458 22.6758 286.492 23.002C285.48 23.35 284.428 23.5256 283.281 23.5256Z" fill="white"/>
<path d="M287.526 35.6906C280.142 41.7734 269.41 44.9999 260.185 44.9999C247.255 44.9999 235.606 39.6695 226.804 30.8087C226.109 30.1095 226.736 29.1562 227.569 29.708C237.085 35.8631 248.827 39.5943 260.97 39.5943C269.166 39.5943 278.164 37.691 286.45 33.7874C287.684 33.1603 288.739 34.6873 287.526 35.6906ZM290.603 31.7837C289.658 30.4355 284.359 31.1347 281.957 31.4608C281.241 31.5612 281.128 30.8588 281.781 30.332C285.999 27.0304 292.936 27.9804 293.745 29.0809C294.552 30.2098 293.52 37.9419 289.568 41.6449C288.964 42.2218 288.379 41.9208 288.648 41.1715C289.548 38.6944 291.545 33.1132 290.603 31.7837Z" fill="#FF9900"/>
<path d="M203.728 13.0752V19.9481H200.849V13.0752H194.467V10.3262H200.849V3.68237H203.728V10.3262H210.142V13.0752H203.728Z" fill="white"/>
</svg>
