<svg width="108" height="140" viewBox="0 0 108 140" fill="none" xmlns="http://www.w3.org/2000/svg">
<path d="M30.6203 94.139C43.8087 107.327 65.1913 107.327 78.3797 94.139C91.568 80.9506 91.568 59.568 78.3797 46.3797C65.1913 33.1913 43.8087 33.1913 30.6203 46.3797C17.432 59.568 17.432 80.9506 30.6203 94.139Z" fill="url(#paint0_linear_2021_506)"/>
<path d="M55.4401 105.143C55.0601 105.143 54.6701 104.992 54.3801 104.702L37.0001 87.3325C36.7201 87.0525 36.5601 86.6725 36.5601 86.2725C36.5601 85.8725 36.7201 85.4925 37.0001 85.2125L47.5701 74.6425C48.1601 74.0525 49.1101 74.0525 49.6901 74.6425C50.2801 75.2325 50.2801 76.1825 49.6901 76.7625L40.1801 86.2725L55.4301 101.522L103.88 53.0725L55.4401 4.6225L6.99012 53.0725L21.0401 67.1225C21.6301 67.7125 21.6301 68.6625 21.0401 69.2425C20.4501 69.8325 19.5001 69.8325 18.9201 69.2425L3.81012 54.1325C3.53012 53.8525 3.37012 53.4725 3.37012 53.0725C3.37012 52.6725 3.53012 52.2925 3.81012 52.0125L54.3801 1.4425C54.9701 0.8525 55.9201 0.8525 56.5001 1.4425L107.07 52.0125C107.66 52.6025 107.66 53.5525 107.07 54.1325L56.5001 104.702C56.2101 104.992 55.8201 105.143 55.4401 105.143Z" fill="black"/>
<path d="M53.07 139.562C52.67 139.562 52.29 139.402 52.01 139.122L1.44 88.5524C1.16 88.2724 1 87.8924 1 87.4924C1 87.0924 1.16 86.7124 1.44 86.4324L52.01 35.8624C52.6 35.2724 53.55 35.2724 54.13 35.8624L71.5 53.2324C72.09 53.8224 72.09 54.7724 71.5 55.3524L61.2 65.6524C60.61 66.2424 59.66 66.2424 59.08 65.6524C58.49 65.0624 58.49 64.1124 59.08 63.5324L68.32 54.2924L53.07 39.0424L4.62 87.4924L53.07 135.942L101.52 87.4924L87.47 73.4424C86.88 72.8524 86.88 71.9024 87.47 71.3224C88.06 70.7424 89.01 70.7324 89.59 71.3224L104.7 86.4324C105.29 87.0224 105.29 87.9724 104.7 88.5524L54.13 139.122C53.85 139.402 53.47 139.562 53.07 139.562Z" fill="black"/>
<path d="M54.5799 74.1826C52.0099 74.1826 49.9199 72.1526 49.9199 69.6626C49.9199 67.1726 52.0099 65.1426 54.5799 65.1426C57.1499 65.1426 59.2399 67.1726 59.2399 69.6626C59.2399 72.1526 57.1499 74.1826 54.5799 74.1826ZM54.5799 68.1526C53.6699 68.1526 52.9199 68.8326 52.9199 69.6726C52.9199 70.5126 53.6599 71.1926 54.5799 71.1926C55.4999 71.1926 56.2399 70.5126 56.2399 69.6726C56.2399 68.8326 55.4999 68.1526 54.5799 68.1526Z" fill="black"/>
<defs>
<linearGradient id="paint0_linear_2021_506" x1="240.717" y1="-25.9087" x2="5.70036" y2="5.74049" gradientUnits="userSpaceOnUse">
<stop stop-color="#FFCCBD"/>
<stop offset="0.3125" stop-color="#D8B0FF"/>
<stop offset="0.600448" stop-color="#A7CAFF"/>
<stop offset="1" stop-color="#E1FFA3"/>
</linearGradient>
</defs>
</svg>
