<svg width="108" height="140" viewBox="0 0 108 140" fill="none" xmlns="http://www.w3.org/2000/svg">
<path d="M28.8796 94.639C42.068 107.827 63.4506 107.827 76.6389 94.639C89.8273 81.4506 89.8273 60.068 76.6389 46.8797C63.4506 33.6913 42.068 33.6913 28.8796 46.8797C15.6912 60.068 15.6912 81.4506 28.8796 94.639Z" fill="url(#paint0_linear_2021_513)"/>
<path d="M91.17 124.86H10.5C9.67 124.86 9 124.19 9 123.36V6.5C9 5.67 9.67 5 10.5 5H91.17C92 5 92.67 5.67 92.67 6.5V123.36C92.67 124.19 92 124.86 91.17 124.86ZM12 121.86H89.67V8H12V121.86Z" fill="black"/>
<path d="M101.35 135.33H20.6799C19.8499 135.33 19.1799 134.66 19.1799 133.83V123.89C19.1799 123.06 19.8499 122.39 20.6799 122.39C21.5099 122.39 22.1799 123.06 22.1799 123.89V132.33H99.8499V18.4702H22.1799V78.0602H50.9599V56.3002C50.9599 55.4702 51.6299 54.8002 52.4599 54.8002C53.2899 54.8002 53.9599 55.4702 53.9599 56.3002V79.5602C53.9599 80.3902 53.2899 81.0602 52.4599 81.0602H20.6799C19.8499 81.0602 19.1799 80.3902 19.1799 79.5602V16.9702C19.1799 16.1402 19.8499 15.4702 20.6799 15.4702H101.35C102.18 15.4702 102.85 16.1402 102.85 16.9702V133.83C102.85 134.66 102.18 135.33 101.35 135.33Z" fill="black"/>
<path d="M51.4199 114.13C50.5899 114.13 49.9199 113.46 49.9199 112.63V92.04C49.9199 91.21 50.5899 90.54 51.4199 90.54C52.2499 90.54 52.9199 91.21 52.9199 92.04V112.63C52.9199 113.46 52.2499 114.13 51.4199 114.13Z" fill="black"/>
<path d="M53.3698 45.35C50.1798 45.35 47.5898 42.76 47.5898 39.57C47.5898 36.38 50.1798 33.79 53.3698 33.79C56.5598 33.79 59.1498 36.38 59.1498 39.57C59.1498 42.76 56.5598 45.35 53.3698 45.35ZM53.3698 36.78C51.8398 36.78 50.5898 38.03 50.5898 39.56C50.5898 41.09 51.8398 42.34 53.3698 42.34C54.8998 42.34 56.1498 41.09 56.1498 39.56C56.1498 38.03 54.8998 36.78 53.3698 36.78Z" fill="black"/>
<defs>
<linearGradient id="paint0_linear_2021_513" x1="238.976" y1="-25.4087" x2="3.95964" y2="6.24049" gradientUnits="userSpaceOnUse">
<stop stop-color="#FFCCBD"/>
<stop offset="0.3125" stop-color="#D8B0FF"/>
<stop offset="0.600448" stop-color="#A7CAFF"/>
<stop offset="1" stop-color="#E1FFA3"/>
</linearGradient>
</defs>
</svg>
