<svg width="132" height="140" viewBox="0 0 132 140" fill="none" xmlns="http://www.w3.org/2000/svg">
<g clip-path="url(#clip0_2021_520)">
<path d="M23.8796 66.639C37.068 79.8274 58.4506 79.8274 71.6389 66.639C84.8273 53.4506 84.8273 32.068 71.6389 18.8797C58.4506 5.69129 37.068 5.69129 23.8796 18.8797C10.6912 32.068 10.6912 53.4506 23.8796 66.639Z" fill="url(#paint0_linear_2021_520)"/>
<path d="M45.3199 137.75C34.7599 137.75 24.1799 133.72 16.1199 125.66C2.03991 111.58 -0.0200868 89.51 11.2299 73.2C11.6999 72.52 12.6299 72.35 13.3199 72.82C13.9999 73.29 14.1699 74.22 13.6999 74.91C3.26991 90.03 5.18991 110.48 18.2499 123.54C33.1599 138.45 57.3599 138.5 72.1999 123.65C82.4999 113.35 85.6299 98.54 81.5999 85.47H48.2699C47.8699 85.47 47.4899 85.31 47.2099 85.03C46.9299 84.75 46.7699 84.36 46.7699 83.96L46.9099 57.11C46.9099 56.69 47.0899 56.3 47.3999 56.01C47.7099 55.73 48.1199 55.59 48.5299 55.62C58.2899 56.4 67.1699 60.54 74.2099 67.58C78.5699 71.94 81.7499 77.03 83.7499 82.47H124.24V8H49.7599V29.65C49.7599 30.48 49.0899 31.15 48.2599 31.15C47.4299 31.15 46.7599 30.48 46.7599 29.65V6.5C46.7599 5.67 47.4299 5 48.2599 5H125.73C126.56 5 127.23 5.67 127.23 6.5V83.97C127.23 84.8 126.56 85.47 125.73 85.47H84.7199C88.6599 99.36 85.1999 114.9 74.3199 125.78C66.3299 133.77 55.8399 137.76 45.3299 137.76L45.3199 137.75ZM49.7699 82.47H80.5299C78.6599 77.82 75.8499 73.47 72.0799 69.71C65.9399 63.57 58.2999 59.81 49.8899 58.78L49.7699 82.47Z" fill="black"/>
<path d="M48.3799 48.98C45.0699 48.98 42.3799 46.29 42.3799 42.98C42.3799 39.67 45.0699 36.98 48.3799 36.98C51.6899 36.98 54.3799 39.67 54.3799 42.98C54.3799 46.29 51.6899 48.98 48.3799 48.98ZM48.3799 39.98C46.7299 39.98 45.3799 41.33 45.3799 42.98C45.3799 44.63 46.7299 45.98 48.3799 45.98C50.0299 45.98 51.3799 44.63 51.3799 42.98C51.3799 41.33 50.0299 39.98 48.3799 39.98Z" fill="black"/>
</g>
<defs>
<linearGradient id="paint0_linear_2021_520" x1="233.976" y1="-53.4087" x2="-1.04036" y2="-21.7595" gradientUnits="userSpaceOnUse">
<stop stop-color="#FFCCBD"/>
<stop offset="0.3125" stop-color="#D8B0FF"/>
<stop offset="0.600448" stop-color="#A7CAFF"/>
<stop offset="1" stop-color="#E1FFA3"/>
</linearGradient>
<clipPath id="clip0_2021_520">
<rect width="132" height="140" fill="white"/>
</clipPath>
</defs>
</svg>
