<svg width="139" height="140" viewBox="0 0 139 140" fill="none" xmlns="http://www.w3.org/2000/svg">
<g clip-path="url(#clip0_2021_532)">
<path d="M75.8797 102.639C89.0681 115.827 110.451 115.827 123.639 102.639C136.827 89.4506 136.827 68.068 123.639 54.8797C110.451 41.6913 89.0681 41.6913 75.8797 54.8797C62.6914 68.068 62.6914 89.4506 75.8797 102.639Z" fill="url(#paint0_linear_2021_532)"/>
<path d="M122.77 116.2H64.64C64.05 116.2 63.51 115.85 63.27 115.31L50.38 86.54C26.36 90.39 9.7 103.33 8.13 113.19H32.29C33.12 113.19 33.79 113.86 33.79 114.69C33.79 115.52 33.12 116.19 32.29 116.19H6.5C5.67 116.19 5 115.52 5 114.69C5 102.45 23.65 88.07 49.12 83.72L41.34 66.35C41.16 65.96 41.17 65.51 41.34 65.12L64.65 13.88C64.89 13.36 65.4 13.02 65.98 13C66.56 13 67.09 13.3 67.35 13.81L95.87 68.86C96.25 69.6 95.96 70.5 95.23 70.88C94.49 71.26 93.59 70.97 93.21 70.24L66.11 17.93L44.35 65.76L52.19 83.26C56.2 82.72 60.36 82.42 64.63 82.42C96.75 82.42 124.26 100.17 124.26 114.7C124.26 115.53 123.59 116.2 122.76 116.2H122.77ZM65.61 113.2H121.14C119.19 101.71 95.58 85.42 64.64 85.42C60.78 85.42 57.06 85.66 53.47 86.1L65.61 113.19V113.2Z" fill="black"/>
<path d="M100.5 85.8301C97.19 85.8301 94.5 83.1401 94.5 79.8301C94.5 76.5201 97.19 73.8301 100.5 73.8301C103.81 73.8301 106.5 76.5201 106.5 79.8301C106.5 83.1401 103.81 85.8301 100.5 85.8301ZM100.5 76.8301C98.85 76.8301 97.5 78.1801 97.5 79.8301C97.5 81.4801 98.85 82.8301 100.5 82.8301C102.15 82.8301 103.5 81.4801 103.5 79.8301C103.5 78.1801 102.15 76.8301 100.5 76.8301Z" fill="black"/>
</g>
<defs>
<linearGradient id="paint0_linear_2021_532" x1="285.976" y1="-17.4087" x2="50.9598" y2="14.2405" gradientUnits="userSpaceOnUse">
<stop stop-color="#FFCCBD"/>
<stop offset="0.3125" stop-color="#D8B0FF"/>
<stop offset="0.600448" stop-color="#A7CAFF"/>
<stop offset="1" stop-color="#E1FFA3"/>
</linearGradient>
<clipPath id="clip0_2021_532">
<rect width="139" height="140" fill="white"/>
</clipPath>
</defs>
</svg>
