<svg width="303" height="100" viewBox="0 0 303 100" fill="none" xmlns="http://www.w3.org/2000/svg">
<g clip-path="url(#clip0_166_129)">
<path d="M18.507 3.20264L8.66504 17.0646V24.9004L0.100638 28.974L0.0234375 28.938V80.059L33.4144 95.8344L35.455 96.7974L37.4954 95.8344L70.8864 80.059V28.9378L70.8236 28.9676L62.2566 24.8924V17.0648L61.957 16.6432L52.4142 3.20264L42.5718 17.0646V17.0786L35.4098 6.99204L28.3038 17.0008L28.0498 16.6432L18.507 3.20264ZM20.2484 11.2546L24.055 16.616H12.959L16.7216 11.3176L20.2484 11.2546ZM54.155 11.2546L57.9622 16.616H46.8662L50.6278 11.3176L54.155 11.2546ZM37.151 15.0446L40.9578 20.4052H29.863L33.6244 15.107L37.151 15.0446ZM11.9072 19.3178H17.1694V37.038L11.9068 34.5516L11.9072 19.3178ZM19.8716 19.3178H25.1078V40.7878L19.8714 38.314L19.8716 19.3178ZM45.8148 19.3178H51.0768V38.2958L45.8148 40.7818V19.3178ZM53.7782 19.3178H59.0142V34.5458L53.7782 37.0192V19.3178ZM28.8104 23.107H34.073V45.0228L28.8104 42.5364V23.107ZM36.7748 23.107H42.0108V42.579L36.7748 45.053V23.107ZM286.933 25.0416L286.907 34.9068L281.617 34.8708V38.8904H286.922V60.0832C286.922 61.6268 287.043 63.0584 287.287 64.3778L287.289 64.3892L287.292 64.4012C287.592 65.749 288.098 66.924 288.82 67.9046C289.549 68.8932 290.524 69.6532 291.701 70.1666C292.901 70.7374 294.362 71.0042 296.075 71.0042C296.857 71.0042 297.751 70.8766 298.776 70.6326C299.813 70.3844 300.833 70.0689 301.829 69.688L302.425 69.4606L301.139 65.6058L300.465 65.917C299.156 66.4846 297.872 66.909 296.5 66.9166C295.394 66.9166 294.525 66.7578 293.889 66.4838C293.281 66.155 292.812 65.743 292.455 65.2314C292.083 64.6498 291.81 63.9808 291.637 63.2122C291.504 62.362 291.434 61.4142 291.434 60.3666V38.8904H301.267V34.874H291.434V25.0414L286.933 25.0416ZM62.2558 28.931L66.8892 30.8252L62.2558 33.014V28.931ZM8.66504 28.9378V33.0204L4.03264 30.8318L8.66504 28.9378ZM225.783 34.024L225.784 34.0246V34.025C223.553 34.025 221.389 34.5742 219.322 35.657L219.319 35.659L219.316 35.6604C217.646 36.5564 216.252 37.492 214.787 38.5976L214.761 34.8742H210.407V85.5054H214.847V67.4074C216.303 68.4 217.74 69.2606 219.148 69.8862L219.155 69.8892L219.162 69.8926C220.928 70.6286 222.668 71.0042 224.369 71.0042C226.439 71.0042 228.424 70.583 230.299 69.744L230.303 69.7424L230.307 69.7404C232.229 68.8532 233.911 67.5906 235.337 65.9684L235.335 65.969C236.811 64.296 237.962 62.2844 238.788 59.9514C239.619 57.6044 240.029 54.9574 240.029 52.0194C240.029 46.6448 238.876 42.2974 236.509 39.041L236.508 39.0394C234.122 35.7104 230.464 34.024 225.783 34.024ZM118.24 34.0246V34.025C116.009 34.025 113.845 34.5742 111.778 35.657L111.775 35.659L111.772 35.6604C110.102 36.5564 108.708 37.4924 107.243 38.5982L107.217 34.8742H102.863V85.506H107.303V67.4078C108.759 68.4004 110.196 69.2606 111.604 69.8862L111.611 69.8896L111.618 69.8932C113.384 70.6292 115.124 71.0048 116.825 71.0048C118.895 71.0048 120.88 70.5834 122.755 69.7446L122.759 69.7426L122.763 69.741C124.685 68.8536 126.367 67.591 127.793 65.969L127.791 65.9696C129.267 64.2966 130.418 62.285 131.244 59.952C132.075 57.605 132.485 54.958 132.485 52.0198C132.485 46.6452 131.332 42.2978 128.965 39.0414L128.964 39.04C126.578 35.711 122.92 34.0246 118.24 34.0246ZM190.543 34.0246V34.025C188.077 34.025 185.842 34.649 183.896 35.8946C182.307 36.8728 180.767 38.119 179.258 39.5324L179.289 34.8742H175.024V70.1556H179.466V44.556C181.436 42.561 183.211 40.6716 184.743 39.7084L184.749 39.7044L184.754 39.701C186.3 38.685 187.997 38.183 189.907 38.183C192.55 38.183 194.254 38.9636 195.298 40.5076L195.304 40.516L195.31 40.5248C196.404 42.0402 197.023 44.5728 197.023 48.1292V70.1552H201.464V47.7046C201.464 43.1894 200.637 39.7638 198.849 37.4646C197.057 35.1612 194.213 34.0246 190.543 34.0246ZM154.026 34.025C152.043 34.025 150.102 34.4738 148.231 35.359C148.23 35.3596 148.229 35.3602 148.228 35.3606C146.398 36.202 144.745 37.439 143.278 39.0528L143.277 39.0534C141.847 40.6316 140.698 42.5694 139.825 44.85L139.822 44.856L139.82 44.862C138.988 47.162 138.578 49.7394 138.578 52.5856C138.578 55.4316 138.988 58.0096 139.82 60.3096L139.823 60.3176L139.826 60.3256C140.701 62.5612 141.875 64.4976 143.349 66.1186L143.353 66.1222L143.356 66.1262C144.831 67.6998 146.563 68.9124 148.532 69.7494L148.534 69.7504L148.537 69.7514C150.552 70.5868 152.695 71.0042 154.946 71.0042C157.505 71.0042 159.643 70.647 161.362 69.8902L161.365 69.8882C163.037 69.1716 164.569 68.4054 165.963 67.5884L166.512 67.267L164.579 63.6164L163.958 64.0766C162.736 64.9818 161.531 65.5446 160.08 66.0894C158.702 66.5774 157.003 66.8274 155.229 66.8274C153.38 66.8274 151.739 66.652 150.279 65.9904C148.805 65.2744 147.54 64.3196 146.469 63.117C145.443 61.8656 144.634 60.388 144.045 58.6674C144.045 58.6668 144.045 58.6662 144.045 58.6658C143.523 57.0978 143.248 55.3998 143.152 53.6044H167.637C167.637 52.9124 167.703 52.2474 167.706 51.6664V50.3934C167.706 45.2924 166.522 41.2512 164.083 38.3636C161.648 35.4822 158.231 34.0256 154.026 34.0256V34.025ZM261.654 34.025C259.538 34.025 257.51 34.4456 255.588 35.283C253.667 36.1206 251.961 37.3326 250.488 38.9036L250.485 38.9076L250.48 38.9116C249.048 40.4924 247.899 42.4556 247.026 44.7836L247.025 44.787L247.023 44.791C246.191 47.0924 245.781 49.6934 245.781 52.5854C245.781 55.4776 246.191 58.079 247.023 60.3804L247.026 60.3884L247.029 60.3964C247.903 62.6296 249.052 64.5424 250.48 66.1182L250.484 66.1216L250.488 66.126C251.961 67.697 253.666 68.9086 255.587 69.7464C257.509 70.5838 259.538 71.0042 261.653 71.0042C263.769 71.0042 265.798 70.5838 267.719 69.7462C269.686 68.9094 271.394 67.6968 272.823 66.1222C274.301 64.5442 275.453 62.626 276.281 60.3874C277.162 58.084 277.597 55.4794 277.597 52.5854C277.597 49.6926 277.163 47.0894 276.282 44.7864C275.455 42.456 274.304 40.489 272.822 38.9072C271.394 37.3328 269.686 36.1196 267.719 35.2828C265.798 34.4454 263.769 34.025 261.654 34.025H261.654ZM4.10404 35.379L33.4144 49.2252V91.3202L4.10404 77.4742V35.379ZM66.8054 35.379V77.474L37.4954 91.3202V49.2252L66.8054 35.379ZM154.096 38.0416H154.097C157.005 38.0416 159.197 39.0284 160.871 41.0542L160.872 41.0572L160.874 41.0602C162.429 42.9018 163.277 45.7976 163.369 49.7286H143.203C143.413 48.0646 143.764 46.5366 144.312 45.204C144.992 43.6648 145.823 42.3664 146.802 41.298C147.83 40.2264 148.954 39.4358 150.185 38.908L150.194 38.9036L150.203 38.8996C151.438 38.3262 152.727 38.0416 154.096 38.0416ZM117.745 38.112V38.1126C119.592 38.1126 121.124 38.4712 122.375 39.1618L122.383 39.1658L122.391 39.1702C123.659 39.8258 124.671 40.7514 125.461 41.9806L125.465 41.9856L125.468 41.99C126.262 43.1814 126.847 44.6312 127.21 46.356L127.211 46.3644L127.214 46.3724C127.625 48.1084 127.833 49.9902 127.833 52.0198C127.833 54.2718 127.534 56.3242 126.944 58.1848L126.942 58.1898L126.94 58.1948C126.394 60.0164 125.626 61.5682 124.643 62.8648C123.66 64.1596 122.491 65.1502 121.118 65.859C119.749 66.5654 118.283 66.9166 116.684 66.9166C115.474 66.9166 114.041 66.6106 112.398 65.9714C110.859 65.373 109.148 63.9026 107.304 62.4394V43.646C109.26 41.9792 111.085 40.3976 112.749 39.5214L112.752 39.5204L112.755 39.5184C114.519 38.5684 116.177 38.112 117.745 38.112ZM225.288 38.112L225.289 38.1126C227.136 38.1126 228.668 38.4712 229.919 39.1618L229.927 39.1658L229.935 39.1702C231.203 39.8258 232.215 40.7514 233.005 41.9806L233.009 41.9856L233.012 41.99C233.806 43.1814 234.391 44.6312 234.754 46.356L234.755 46.3644L234.758 46.3724C235.169 48.1084 235.377 49.9902 235.377 52.0198C235.377 54.2718 235.078 56.3242 234.488 58.1848L234.485 58.1898L234.484 58.1948C233.937 60.0164 233.17 61.5682 232.186 62.8648C231.204 64.1596 230.035 65.1502 228.661 65.859C227.293 66.5654 225.826 66.9166 224.227 66.9166C223.017 66.9166 221.584 66.6106 219.941 65.9714C218.402 65.373 216.692 63.9026 214.847 62.4394V43.646C216.803 41.9792 218.628 40.3976 220.293 39.5214L220.295 39.5198L220.298 39.5184C222.062 38.5684 223.72 38.112 225.288 38.112ZM261.654 38.112V38.1126C263.253 38.1126 264.72 38.4642 266.088 39.1706L266.1 39.1762L266.111 39.1816C267.524 39.844 268.707 40.8062 269.684 42.094L269.691 42.1044L269.699 42.1138C270.727 43.3648 271.538 44.8688 272.129 46.6418C272.716 48.4032 273.014 50.3818 273.014 52.5854C273.014 54.7406 272.717 56.6954 272.129 58.4584C271.538 60.2312 270.727 61.7348 269.699 62.9858L269.695 62.9918L269.691 62.9978C268.713 64.242 267.523 65.2112 266.1 65.9234C264.73 66.5858 263.258 66.9166 261.654 66.9166C260.052 66.9166 258.581 66.5862 257.212 65.9254C255.836 65.2138 254.641 64.241 253.613 62.9902C252.631 61.739 251.841 60.2328 251.25 58.4582C250.662 56.6952 250.364 54.7406 250.364 52.5854C250.364 50.382 250.662 48.4034 251.25 46.6418C251.842 44.8652 252.632 43.3574 253.616 42.1054L253.617 42.1044L253.618 42.1024C254.646 40.8064 255.836 39.8394 257.204 39.1776L257.212 39.1736L257.219 39.1702C258.588 38.4636 260.054 38.112 261.654 38.112H261.654Z" fill="black"/>
</g>
<defs>
<clipPath id="clip0_166_129">
<rect width="302.401" height="100" fill="white" transform="translate(0.0234375)"/>
</clipPath>
</defs>
</svg>
