<svg width="80" height="80" viewBox="0 0 80 80" fill="none" xmlns="http://www.w3.org/2000/svg">
<g clip-path="url(#clip0_2014_427)">
<path fill-rule="evenodd" clip-rule="evenodd" d="M38.7086 0L43.5321 2.89759L38.7086 5.79536L38.7086 2.89768L38.7086 0ZM32.995 3.30079L32.8863 2.73718C32.0911 2.89182 31.3048 3.07154 30.5283 3.27549L30.6729 3.83089L30.8176 4.3863C31.5704 4.18858 32.3327 4.01434 33.1037 3.8644L32.995 3.30079ZM25.0566 5.80425L24.8249 5.27943C24.0859 5.60842 23.3594 5.96055 22.6463 6.3349L22.9112 6.84366L23.176 7.35242C23.8674 6.98945 24.5718 6.64804 25.2883 6.32907L25.0566 5.80425ZM17.876 10.0271L17.5337 9.56724C16.8872 10.0525 16.2568 10.5581 15.6433 11.0831L16.014 11.52L16.3848 11.957C16.9798 11.4478 17.5913 10.9575 18.2182 10.4869L17.876 10.0271ZM11.8061 15.7456L11.371 15.3733C10.8482 15.9894 10.3447 16.6225 9.86147 17.2716L10.3194 17.6154L10.7773 17.9591C11.2459 17.3295 11.7342 16.7155 12.2412 16.118L11.8061 15.7456ZM7.14927 22.6717L6.64264 22.4057C6.26986 23.1218 5.9192 23.8513 5.59158 24.5934L6.11421 24.8261L6.63684 25.0588C6.95447 24.3393 7.29445 23.632 7.65591 22.9376L7.14927 22.6717ZM4.1491 30.466L3.59601 30.3207C3.39292 31.1006 3.21395 31.8902 3.05995 32.6887L3.62121 32.7979L4.18247 32.907C4.33178 32.1328 4.50529 31.3672 4.70218 30.6113L4.1491 30.466ZM3.62121 47.0715L3.05995 47.1807C3.21395 47.9792 3.39292 48.7688 3.59601 49.5486L4.1491 49.4034L4.70218 49.2581C4.50529 48.5021 4.33178 47.7366 4.18247 46.9624L3.62121 47.0715ZM6.11421 55.0433L5.59158 55.2759C5.9192 56.018 6.26986 56.7476 6.64264 57.4636L7.14927 57.1977L7.65591 56.9317C7.29445 56.2374 6.95447 55.5301 6.63684 54.8106L6.11421 55.0433ZM10.3194 62.254L9.86147 62.5977C10.3447 63.2469 10.8482 63.88 11.371 64.4961L11.8061 64.1237L12.2412 63.7514C11.7342 63.1539 11.2459 62.5399 10.7773 61.9103L10.3194 62.254ZM16.014 68.3493L15.6433 68.7863C16.2568 69.3113 16.8872 69.8169 17.5337 70.3021L17.876 69.8423L18.2182 69.3825C17.5913 68.9119 16.9799 68.4215 16.3848 67.9124L16.014 68.3493ZM22.9112 73.0257L22.6463 73.5345C23.3594 73.9088 24.0859 74.2609 24.8249 74.5899L25.0566 74.0651L25.2883 73.5403C24.5718 73.2213 23.8674 72.8799 23.176 72.517L22.9112 73.0257ZM30.6729 76.0385L30.5283 76.5939C31.3048 76.7978 32.0911 76.9775 32.8863 77.1322L32.995 76.5686L33.1037 76.005C32.3327 75.855 31.5704 75.6808 30.8176 75.4831L30.6729 76.0385ZM47.2091 76.5686L47.3177 77.1322C48.113 76.9775 48.8993 76.7978 49.6758 76.5939L49.5312 76.0385L49.3865 75.4831C48.6337 75.6808 47.8714 75.855 47.1004 76.005L47.2091 76.5686ZM55.1475 74.0651L55.3792 74.5899C56.1182 74.2609 56.8447 73.9088 57.5578 73.5345L57.2929 73.0257L57.0281 72.517C56.3367 72.8799 55.6323 73.2213 54.9158 73.5403L55.1475 74.0651ZM62.3281 69.8423L62.6704 70.3021C63.3169 69.8169 63.9473 69.3113 64.5608 68.7863L64.19 68.3493L63.8193 67.9124C63.2242 68.4215 62.6128 68.9119 61.9858 69.3825L62.3281 69.8423ZM68.398 64.1237L68.8331 64.4961C69.3559 63.88 69.8594 63.2469 70.3426 62.5977L69.8847 62.254L69.4268 61.9103C68.9582 62.5399 68.4699 63.1539 67.9629 63.7514L68.398 64.1237ZM73.0548 57.1977L73.5615 57.4636C73.9342 56.7476 74.2849 56.018 74.6125 55.2759L74.0899 55.0433L73.5673 54.8106C73.2496 55.5301 72.9096 56.2374 72.5482 56.9317L73.0548 57.1977ZM76.055 49.4034L76.6081 49.5486C76.8112 48.7688 76.9901 47.9792 77.1441 47.1807L76.5829 47.0715L76.0216 46.9624C75.8723 47.7366 75.6988 48.5021 75.5019 49.2581L76.055 49.4034ZM42.9334 80L38.1099 77.1024L42.9333 74.2046L42.9333 77.1023L42.9334 80ZM3.15458 38.4255L0 43.7209L3.15468 43.7209L6.30936 43.7209L3.15458 38.4255Z" fill="#9B9B9B"/>
<path d="M76.6518 38.2396L74.2289 38.2396L77.1146 43.0833L80.0001 38.2395L77.7964 38.2396C77.7135 36.35 77.4929 34.4965 77.1443 32.6887C76.9948 31.9135 76.8217 31.1467 76.6259 30.3891L76.6082 30.3208C76.0934 28.3441 75.4236 26.4304 74.6126 24.5934C74.3014 23.8885 73.9694 23.1949 73.6173 22.5133L73.5616 22.4057C72.6238 20.6044 71.546 18.8882 70.3427 17.2717C69.8595 16.6225 69.356 15.9894 68.8332 15.3733C67.5251 13.8317 66.0961 12.3968 64.5609 11.0831C63.9474 10.5582 63.317 10.0525 62.6705 9.56726C61.0608 8.35891 59.3517 7.27666 57.5579 6.33497C56.8448 5.96063 56.1183 5.60844 55.3793 5.27945C53.5501 4.46509 51.6443 3.79254 49.6759 3.27558C48.8994 3.07163 48.1131 2.89184 47.3179 2.7372C47.1996 2.71419 47.0811 2.69181 46.9624 2.66992V3.83813C63.354 6.96056 75.8751 21.0633 76.6518 38.2396Z" fill="white"/>
</g>
<defs>
<clipPath id="clip0_2014_427">
<rect width="80" height="80" fill="white"/>
</clipPath>
</defs>
</svg>
