<svg width="80" height="80" viewBox="0 0 80 80" fill="none" xmlns="http://www.w3.org/2000/svg">
<g clip-path="url(#clip0_2014_439)">
<path fill-rule="evenodd" clip-rule="evenodd" d="M41.2914 80L36.4679 77.1024L41.2914 74.2046L41.2914 77.1023L41.2914 80ZM47.005 76.6992L47.1137 77.2628C47.9089 77.1082 48.6952 76.9285 49.4717 76.7245L49.3271 76.1691L49.1824 75.6137C48.4296 75.8114 47.6673 75.9857 46.8963 76.1356L47.005 76.6992ZM54.9434 74.1957L55.1751 74.7206C55.9141 74.3916 56.6406 74.0394 57.3537 73.6651L57.0888 73.1563L56.824 72.6476C56.1326 73.0106 55.4282 73.352 54.7117 73.6709L54.9434 74.1957ZM62.124 69.9729L62.4663 70.4328C63.1128 69.9475 63.7432 69.4419 64.3567 68.9169L63.986 68.48L63.6152 68.043C63.0202 68.5522 62.4087 69.0425 61.7818 69.5131L62.124 69.9729ZM68.1939 64.2544L68.629 64.6267C69.1518 64.0106 69.6553 63.3775 70.1385 62.7284L69.6806 62.3846L69.2227 62.0409C68.7541 62.6705 68.2658 63.2845 67.7588 63.882L68.1939 64.2544ZM72.8507 57.3283L73.3574 57.5943C73.7301 56.8782 74.0808 56.1487 74.4084 55.4066L73.8858 55.1739L73.3632 54.9412C73.0455 55.6607 72.7055 56.368 72.3441 57.0624L72.8507 57.3283ZM75.8509 49.534L76.404 49.6793C76.6071 48.8994 76.7861 48.1098 76.9401 47.3113L76.3788 47.2021L75.8175 47.093C75.6682 47.8672 75.4947 48.6328 75.2978 49.3887L75.8509 49.534ZM76.3788 32.9285L76.9401 32.8193C76.7861 32.0208 76.6071 31.2312 76.404 30.4514L75.8509 30.5966L75.2978 30.7419C75.4947 31.4979 75.6682 32.2634 75.8175 33.0376L76.3788 32.9285ZM73.8858 24.9567L74.4084 24.7241C74.0808 23.982 73.7301 23.2524 73.3574 22.5364L72.8507 22.8023L72.3441 23.0683C72.7056 23.7626 73.0455 24.4699 73.3632 25.1894L73.8858 24.9567ZM69.6806 17.746L70.1385 17.4023C69.6553 16.7531 69.1518 16.12 68.629 15.5039L68.1939 15.8763L67.7588 16.2486C68.2658 16.8461 68.7541 17.4601 69.2227 18.0897L69.6806 17.746ZM63.986 11.6507L64.3567 11.2137C63.7432 10.6887 63.1128 10.1831 62.4663 9.69787L62.124 10.1577L61.7818 10.6175C62.4087 11.0881 63.0202 11.5785 63.6152 12.0876L63.986 11.6507ZM57.0888 6.97429L57.3537 6.46553C56.6406 6.09118 55.9141 5.73905 55.1751 5.41006L54.9434 5.93489L54.7117 6.45971C55.4282 6.77867 56.1326 7.12008 56.824 7.48305L57.0888 6.97429ZM49.3271 3.96152L49.4717 3.40612C48.6952 3.20217 47.9089 3.02245 47.1137 2.8678L47.005 3.43142L46.8963 3.99503C47.6673 4.14497 48.4296 4.31921 49.1824 4.51693L49.3271 3.96152ZM32.791 3.43142L32.6823 2.8678C31.887 3.02245 31.1007 3.20216 30.3242 3.40611L30.4688 3.96152L30.6135 4.51693C31.3663 4.31921 32.1287 4.14497 32.8996 3.99503L32.791 3.43142ZM24.8525 5.93487L24.6208 5.41005C23.8818 5.73905 23.1553 6.09118 22.4422 6.46553L22.7071 6.97429L22.9719 7.48304C23.6634 7.12008 24.3677 6.77867 25.0842 6.4597L24.8525 5.93487ZM17.6719 10.1577L17.3296 9.69786C16.6831 10.1831 16.0527 10.6887 15.4392 11.2137L15.81 11.6507L16.1808 12.0876C16.7758 11.5785 17.3872 11.0881 18.0142 10.6175L17.6719 10.1577ZM11.602 15.8762L11.1669 15.5039C10.6441 16.12 10.1406 16.7531 9.65739 17.4023L10.1153 17.746L10.5732 18.0897C11.0418 17.4601 11.5301 16.8461 12.0371 16.2486L11.602 15.8762ZM6.94519 22.8023L6.43855 22.5363C6.06577 23.2524 5.71511 23.982 5.3875 24.724L5.91013 24.9567L6.43275 25.1894C6.75038 24.4699 7.09037 23.7626 7.45182 23.0683L6.94519 22.8023ZM3.94501 30.5966L3.39193 30.4514C3.18884 31.2312 3.00987 32.0208 2.85587 32.8193L3.41713 32.9285L3.97838 33.0376C4.1277 32.2634 4.30121 31.4979 4.49809 30.7419L3.94501 30.5966ZM37.0666 -4.72511e-06L41.8901 2.89758L37.0667 5.79536L37.0667 2.89768L37.0666 -4.72511e-06ZM76.8454 41.5745L80 36.2791L76.8453 36.2791L73.6906 36.2791L76.8454 41.5745Z" fill="#9B9B9B"/>
<path d="M3.34816 41.7604L5.77106 41.7604L2.8854 36.9167L-8.53629e-05 41.7605L2.20362 41.7604C2.28647 43.65 2.50711 45.5035 2.85574 47.3113C3.00524 48.0865 3.17829 48.8533 3.37408 49.6109L3.3918 49.6792C3.90661 51.6559 4.57641 53.5696 5.38737 55.4066C5.6986 56.1115 6.03064 56.8051 6.38267 57.4867L6.43843 57.5943C7.37618 59.3956 8.454 61.1118 9.65729 62.7283C10.1405 63.3775 10.644 64.0106 11.1668 64.6267C12.4749 66.1683 13.9039 67.6032 15.4391 68.9169C16.0526 69.4418 16.683 69.9475 17.3295 70.4327C18.9392 71.6411 20.6483 72.7233 22.4421 73.665C23.1552 74.0394 23.8817 74.3916 24.6207 74.7205C26.4499 75.5349 28.3557 76.2075 30.3241 76.7244C31.1006 76.9284 31.8869 77.1082 32.6821 77.2628C32.8004 77.2858 32.9189 77.3082 33.0376 77.3301L33.0376 76.1619C16.646 73.0394 4.12494 58.9367 3.34816 41.7604Z" fill="white"/>
</g>
<defs>
<clipPath id="clip0_2014_439">
<rect width="80" height="80" fill="white"/>
</clipPath>
</defs>
</svg>
