<svg width="80" height="80" viewBox="0 0 80 80" fill="none" xmlns="http://www.w3.org/2000/svg">
<g clip-path="url(#clip0_2014_423)">
<path fill-rule="evenodd" clip-rule="evenodd" d="M-1.69201e-06 41.2914L2.89759 36.4679L5.79536 41.2914L2.89768 41.2914L-1.69201e-06 41.2914ZM3.30079 47.005L2.73717 47.1137C2.89182 47.9089 3.07154 48.6952 3.27549 49.4717L3.83089 49.3271L4.3863 49.1824C4.18858 48.4296 4.01434 47.6673 3.8644 46.8963L3.30079 47.005ZM5.80425 54.9434L5.27943 55.1751C5.60842 55.9141 5.96055 56.6406 6.3349 57.3537L6.84366 57.0888L7.35242 56.824C6.98945 56.1326 6.64804 55.4282 6.32907 54.7117L5.80425 54.9434ZM10.0271 62.124L9.56723 62.4663C10.0525 63.1128 10.5581 63.7432 11.0831 64.3567L11.52 63.986L11.957 63.6152C11.4478 63.0202 10.9575 62.4087 10.4869 61.7818L10.0271 62.124ZM15.7456 68.1939L15.3733 68.629C15.9894 69.1518 16.6225 69.6553 17.2716 70.1385L17.6154 69.6806L17.9591 69.2227C17.3295 68.7541 16.7155 68.2658 16.118 67.7588L15.7456 68.1939ZM22.6717 72.8507L22.4057 73.3574C23.1218 73.7301 23.8513 74.0808 24.5934 74.4084L24.8261 73.8858L25.0588 73.3632C24.3393 73.0455 23.632 72.7055 22.9376 72.3441L22.6717 72.8507ZM30.466 75.8509L30.3207 76.404C31.1006 76.6071 31.8902 76.786 32.6887 76.94L32.7979 76.3788L32.907 75.8175C32.1328 75.6682 31.3672 75.4947 30.6113 75.2978L30.466 75.8509ZM47.0715 76.3788L47.1807 76.94C47.9792 76.786 48.7688 76.6071 49.5486 76.404L49.4034 75.8509L49.2581 75.2978C48.5021 75.4947 47.7366 75.6682 46.9624 75.8175L47.0715 76.3788ZM55.0433 73.8858L55.2759 74.4084C56.018 74.0808 56.7476 73.7301 57.4636 73.3574L57.1977 72.8507L56.9317 72.3441C56.2374 72.7055 55.5301 73.0455 54.8106 73.3632L55.0433 73.8858ZM62.254 69.6806L62.5977 70.1385C63.2469 69.6553 63.88 69.1518 64.4961 68.629L64.1237 68.1939L63.7514 67.7588C63.1539 68.2658 62.5399 68.7541 61.9103 69.2227L62.254 69.6806ZM68.3493 63.9859L68.7863 64.3567C69.3113 63.7432 69.8169 63.1128 70.3021 62.4663L69.8423 62.124L69.3825 61.7818C68.9119 62.4087 68.4215 63.0201 67.9124 63.6152L68.3493 63.9859ZM73.0257 57.0888L73.5345 57.3537C73.9088 56.6406 74.2609 55.9141 74.5899 55.1751L74.0651 54.9434L73.5403 54.7117C73.2213 55.4282 72.8799 56.1326 72.5169 56.824L73.0257 57.0888ZM76.0385 49.3271L76.5939 49.4717C76.7978 48.6952 76.9775 47.9089 77.1322 47.1137L76.5686 47.005L76.005 46.8963C75.855 47.6673 75.6808 48.4296 75.4831 49.1824L76.0385 49.3271ZM76.5686 32.7909L77.1322 32.6823C76.9775 31.887 76.7978 31.1007 76.5939 30.3242L76.0385 30.4688L75.4831 30.6135C75.6808 31.3663 75.855 32.1286 76.005 32.8996L76.5686 32.7909ZM74.0651 24.8525L74.5899 24.6208C74.2609 23.8818 73.9088 23.1553 73.5345 22.4422L73.0257 22.7071L72.5169 22.9719C72.8799 23.6633 73.2213 24.3677 73.5403 25.0842L74.0651 24.8525ZM69.8423 17.6719L70.3021 17.3296C69.8169 16.6831 69.3113 16.0527 68.7863 15.4392L68.3493 15.81L67.9124 16.1807C68.4215 16.7758 68.9119 17.3872 69.3825 18.0141L69.8423 17.6719ZM64.1237 11.602L64.4961 11.1669C63.88 10.6441 63.2469 10.1406 62.5977 9.65738L62.254 10.1153L61.9103 10.5732C62.5399 11.0418 63.1539 11.5301 63.7514 12.0371L64.1237 11.602ZM57.1977 6.94518L57.4636 6.43855C56.7476 6.06577 56.018 5.7151 55.2759 5.38749L55.0433 5.91012L54.8106 6.43275C55.5301 6.75038 56.2374 7.09036 56.9317 7.45181L57.1977 6.94518ZM49.4034 3.94501L49.5486 3.39193C48.7688 3.18883 47.9792 3.00986 47.1807 2.85586L47.0715 3.41712L46.9624 3.97837C47.7366 4.12769 48.5021 4.3012 49.2581 4.49809L49.4034 3.94501ZM80 37.0666L77.1024 41.8901L74.2046 37.0667L77.1023 37.0667L80 37.0666ZM38.4255 76.8454L43.7209 80L43.7209 76.8453L43.7209 73.6906L38.4255 76.8454Z" fill="#9B9B9B"/>
<path d="M38.2397 3.34815L38.2397 5.77106L43.0834 2.88539L38.2397 -9.00272e-05L38.2397 2.20362C36.3502 2.28646 34.4966 2.50711 32.6889 2.85573C31.9136 3.00523 31.1468 3.17828 30.3893 3.37408L30.3209 3.3918C28.3442 3.90661 26.4305 4.5764 24.5936 5.38737C23.8886 5.6986 23.195 6.03064 22.5135 6.38266L22.4059 6.43842C20.6045 7.37618 18.8883 8.45399 17.2718 9.65729C16.6226 10.1405 15.9895 10.644 15.3734 11.1668C13.8318 12.4749 12.3969 13.9039 11.0832 15.4391C10.5583 16.0526 10.0526 16.683 9.56738 17.3295C8.35904 18.9392 7.27678 20.6483 6.3351 22.4421C5.96075 23.1552 5.60857 23.8817 5.27957 24.6207C4.46521 26.4499 3.79266 28.3557 3.2757 30.3241C3.07175 31.1006 2.89197 31.8869 2.73732 32.6821C2.71432 32.8004 2.69194 32.9189 2.67004 33.0376L3.83825 33.0376C6.96068 16.646 21.0634 4.12494 38.2397 3.34815Z" fill="white"/>
</g>
<defs>
<clipPath id="clip0_2014_423">
<rect width="80" height="80" fill="white"/>
</clipPath>
</defs>
</svg>
