<svg width="80" height="80" viewBox="0 0 80 80" fill="none" xmlns="http://www.w3.org/2000/svg">
<g clip-path="url(#clip0_2014_435)">
<path fill-rule="evenodd" clip-rule="evenodd" d="M80 38.7086L77.1024 43.5321L74.2046 38.7086L77.1023 38.7086L80 38.7086ZM76.6992 32.995L77.2628 32.8863C77.1082 32.0911 76.9285 31.3048 76.7245 30.5283L76.1691 30.6729L75.6137 30.8176C75.8114 31.5704 75.9857 32.3327 76.1356 33.1037L76.6992 32.995ZM74.1957 25.0566L74.7206 24.8249C74.3916 24.0859 74.0395 23.3594 73.6651 22.6463L73.1563 22.9112L72.6476 23.176C73.0106 23.8674 73.352 24.5718 73.6709 25.2883L74.1957 25.0566ZM69.9729 17.876L70.4328 17.5337C69.9475 16.8872 69.4419 16.2568 68.9169 15.6433L68.48 16.014L68.043 16.3848C68.5522 16.9798 69.0425 17.5913 69.5131 18.2182L69.9729 17.876ZM64.2544 11.8061L64.6267 11.371C64.0106 10.8482 63.3775 10.3447 62.7284 9.86147L62.3846 10.3194L62.0409 10.7773C62.6705 11.2459 63.2845 11.7342 63.882 12.2412L64.2544 11.8061ZM57.3283 7.14927L57.5943 6.64264C56.8782 6.26985 56.1487 5.9192 55.4066 5.59158L55.1739 6.11421L54.9412 6.63684C55.6607 6.95447 56.368 7.29445 57.0624 7.65591L57.3283 7.14927ZM49.534 4.1491L49.6793 3.59601C48.8994 3.39292 48.1098 3.21395 47.3113 3.05995L47.2021 3.62121L47.093 4.18247C47.8672 4.33178 48.6328 4.50529 49.3887 4.70218L49.534 4.1491ZM32.9285 3.62121L32.8193 3.05995C32.0208 3.21395 31.2312 3.39292 30.4514 3.59601L30.5966 4.14909L30.7419 4.70218C31.4979 4.50529 32.2634 4.33177 33.0376 4.18246L32.9285 3.62121ZM24.9567 6.11421L24.7241 5.59158C23.982 5.9192 23.2524 6.26985 22.5364 6.64264L22.8023 7.14927L23.0683 7.65591C23.7626 7.29445 24.4699 6.95447 25.1894 6.63684L24.9567 6.11421ZM17.746 10.3194L17.4023 9.86147C16.7531 10.3447 16.12 10.8482 15.5039 11.371L15.8763 11.8061L16.2486 12.2412C16.8461 11.7342 17.4601 11.2459 18.0897 10.7773L17.746 10.3194ZM11.6507 16.014L11.2137 15.6433C10.6887 16.2568 10.1831 16.8872 9.69787 17.5337L10.1577 17.876L10.6175 18.2182C11.0881 17.5913 11.5785 16.9798 12.0876 16.3848L11.6507 16.014ZM6.97429 22.9112L6.46553 22.6463C6.09118 23.3594 5.73905 24.0859 5.41006 24.8249L5.93489 25.0566L6.45971 25.2883C6.77867 24.5718 7.12008 23.8674 7.48305 23.176L6.97429 22.9112ZM3.96152 30.6729L3.40612 30.5283C3.20218 31.3048 3.02245 32.0911 2.8678 32.8863L3.43142 32.995L3.99503 33.1037C4.14497 32.3327 4.31921 31.5704 4.51693 30.8176L3.96152 30.6729ZM3.43142 47.209L2.8678 47.3177C3.02245 48.113 3.20217 48.8993 3.40611 49.6758L3.96152 49.5312L4.51693 49.3865C4.31921 48.6337 4.14497 47.8714 3.99503 47.1004L3.43142 47.209ZM5.93488 55.1475L5.41006 55.3792C5.73905 56.1182 6.09118 56.8447 6.46553 57.5578L6.97429 57.2929L7.48305 57.0281C7.12008 56.3366 6.77867 55.6323 6.4597 54.9158L5.93488 55.1475ZM10.1577 62.3281L9.69787 62.6704C10.1831 63.3169 10.6887 63.9473 11.2137 64.5608L11.6507 64.19L12.0876 63.8193C11.5785 63.2242 11.0881 62.6128 10.6175 61.9858L10.1577 62.3281ZM15.8763 68.398L15.5039 68.8331C16.12 69.3559 16.7531 69.8594 17.4023 70.3426L17.746 69.8847L18.0897 69.4268C17.4601 68.9582 16.8461 68.4699 16.2486 67.9629L15.8763 68.398ZM22.8023 73.0548L22.5364 73.5614C23.2524 73.9342 23.982 74.2849 24.7241 74.6125L24.9567 74.0899L25.1894 73.5672C24.4699 73.2496 23.7626 72.9096 23.0683 72.5482L22.8023 73.0548ZM30.5966 76.055L30.4514 76.6081C31.2312 76.8112 32.0208 76.9901 32.8193 77.1441L32.9285 76.5829L33.0376 76.0216C32.2634 75.8723 31.4979 75.6988 30.7419 75.5019L30.5966 76.055ZM-2.84844e-06 42.9334L2.89759 38.1099L5.79536 42.9333L2.89768 42.9333L-2.84844e-06 42.9334ZM41.5745 3.15458L36.2791 -1.9111e-06L36.2791 3.15468L36.2791 6.30935L41.5745 3.15458Z" fill="#9B9B9B"/>
<path d="M41.7603 76.6518L41.7603 74.2289L36.9166 77.1146L41.7603 80.0001L41.7603 77.7964C43.6498 77.7135 45.5034 77.4929 47.3111 77.1443C48.0864 76.9948 48.8532 76.8217 49.6107 76.6259L49.6791 76.6082C51.6558 76.0934 53.5695 75.4236 55.4064 74.6126C56.1114 74.3014 56.805 73.9694 57.4865 73.6173L57.5941 73.5616C59.3955 72.6238 61.1117 71.546 62.7282 70.3427C63.3774 69.8595 64.0105 69.356 64.6266 68.8332C66.1682 67.5251 67.6031 66.0961 68.9167 64.5609C69.4417 63.9474 69.9474 63.317 70.4326 62.6705C71.641 61.0608 72.7232 59.3517 73.6649 57.5579C74.0393 56.8448 74.3914 56.1183 74.7204 55.3793C75.5348 53.5501 76.2073 51.6443 76.7243 49.6759C76.9282 48.8994 77.108 48.1131 77.2627 47.3179C77.2857 47.1996 77.3081 47.0811 77.33 46.9624L76.1617 46.9624C73.0393 63.354 58.9366 75.8751 41.7603 76.6518Z" fill="white"/>
</g>
<defs>
<clipPath id="clip0_2014_435">
<rect width="80" height="80" fill="white"/>
</clipPath>
</defs>
</svg>
