<svg width="31" height="30" viewBox="0 0 31 30" fill="none" xmlns="http://www.w3.org/2000/svg">
<rect x="0.910156" width="30" height="29.997" rx="14.9985" fill="#1A1A1A"/>
<path d="M22.1365 11.8531C22.1459 11.9899 22.1459 12.1268 22.1459 12.2636C22.1459 16.4366 19.097 21.2449 13.5243 21.2449C11.8075 21.2449 10.2127 20.7269 8.87109 19.8278C9.11502 19.8571 9.34954 19.8669 9.60285 19.8669C11.0194 19.8669 12.3235 19.3685 13.3648 18.5183C12.0327 18.4889 10.9163 17.5801 10.5316 16.3291C10.7193 16.3584 10.9069 16.378 11.1039 16.378C11.376 16.378 11.648 16.3389 11.9013 16.2705C10.5129 15.9773 9.47149 14.7068 9.47149 13.1725V13.1334C9.87487 13.368 10.344 13.5145 10.8412 13.5341C10.025 12.9672 9.49026 11.9997 9.49026 10.9052C9.49026 10.3188 9.64033 9.78128 9.90303 9.31218C11.3947 11.2277 13.6369 12.4786 16.1511 12.6154C16.1042 12.3809 16.0761 12.1366 16.0761 11.8922C16.0761 10.1526 17.427 8.7356 19.1063 8.7356C19.9788 8.7356 20.7668 9.11674 21.3203 9.73243C22.0051 9.59562 22.6618 9.33173 23.2435 8.97015C23.0183 9.70313 22.5399 10.3188 21.9114 10.7097C22.5212 10.6413 23.1122 10.4654 23.6563 10.2211C23.2436 10.8465 22.7276 11.4036 22.1365 11.8531Z" fill="white"/>
</svg>
