<svg width="50" height="17" viewBox="0 0 50 17" fill="none" xmlns="http://www.w3.org/2000/svg">
<path d="M21.423 16.3051H17.4182L19.9231 0.81665H23.9277L21.423 16.3051Z" fill="#00579F"/>
<path d="M35.9408 1.19529C35.1509 0.881906 33.898 0.535889 32.3488 0.535889C28.394 0.535889 25.609 2.64484 25.5919 5.66001C25.559 7.88459 27.5859 9.12018 29.1018 9.86192C30.6512 10.6199 31.1779 11.1146 31.1779 11.7902C31.1621 12.8278 29.9258 13.3061 28.7728 13.3061C27.1739 13.3061 26.3172 13.0595 25.0153 12.4822L24.4879 12.2348L23.9275 15.7116C24.8668 16.1395 26.5973 16.5192 28.394 16.5359C32.5961 16.5359 35.3318 14.4596 35.3642 11.2464C35.3802 9.48328 34.31 8.13228 32.0026 7.02831C30.6019 6.31963 29.7441 5.84177 29.7441 5.11667C29.7605 4.45749 30.4696 3.78232 32.0508 3.78232C33.3527 3.74925 34.3093 4.0622 35.034 4.37536L35.3962 4.53983L35.9408 1.19529Z" fill="#00579F"/>
<path d="M41.2637 10.8181C41.5936 9.92828 42.8626 6.48454 42.8626 6.48454C42.846 6.51761 43.1918 5.57833 43.3896 5.0017L43.6694 6.33628C43.6694 6.33628 44.4278 10.0437 44.5925 10.8181C43.9666 10.8181 42.0548 10.8181 41.2637 10.8181ZM46.2072 0.81665H43.1095C42.1542 0.81665 41.4284 1.09653 41.0163 2.10173L35.0676 16.3049H39.2698C39.2698 16.3049 39.9616 14.3932 40.1103 13.9815C40.5713 13.9815 44.6591 13.9815 45.2521 13.9815C45.3671 14.5253 45.73 16.3049 45.73 16.3049H49.4381L46.2072 0.81665Z" fill="#00579F"/>
<path d="M14.0733 0.81665L10.1513 11.3783L9.72272 9.23625C8.99762 6.76464 6.72354 4.07928 4.18579 2.74405L7.77823 16.2886H12.0132L18.3081 0.81665H14.0733Z" fill="#00579F"/>
<path d="M6.50928 0.81665H0.0659181L0 1.1296C5.02622 2.4149 8.35499 5.51306 9.72264 9.23691L8.32193 2.11859C8.09132 1.12938 7.38264 0.849281 6.50928 0.81665Z" fill="#FAA61A"/>
</svg>
